<mxfile host="Electron" modified="2021-11-30T17:04:34.126Z" agent="5.0 (X11; Linux x86_64) AppleWebKit/537.36 (KHTML, like Gecko) draw.io/15.8.7 Chrome/91.0.4472.164 Electron/13.6.2 Safari/537.36" etag="c6P2bi7EiDWUr_4R_gFV" compressed="false" version="15.8.7" type="device">
  <diagram id="prtHgNgQTEPvFCAcTncT" name="Processos Alto Nível">
    <mxGraphModel dx="1422" dy="2042" grid="1" gridSize="10" guides="1" tooltips="1" connect="1" arrows="1" fold="1" page="1" pageScale="1" pageWidth="827" pageHeight="1169" math="0" shadow="0">
      <root>
        <mxCell id="0" />
        <mxCell id="1" parent="0" />
        <mxCell id="j8fhtU1hvzyhwvqFzkYq-1" value="IFAP" style="swimlane;html=1;startSize=20;fontStyle=0;collapsible=0;horizontal=0;swimlaneLine=1;swimlaneFillColor=none;strokeWidth=2;rounded=0;shadow=0;glass=0;fontSize=14;fillColor=none;" parent="1" vertex="1">
          <mxGeometry x="40" y="600" width="2820" height="170" as="geometry" />
        </mxCell>
        <mxCell id="j8fhtU1hvzyhwvqFzkYq-11" style="edgeStyle=orthogonalEdgeStyle;rounded=0;orthogonalLoop=1;jettySize=auto;html=1;fontSize=15;startArrow=none;startFill=0;strokeWidth=2;" parent="j8fhtU1hvzyhwvqFzkYq-1" source="j8fhtU1hvzyhwvqFzkYq-7" target="j8fhtU1hvzyhwvqFzkYq-9" edge="1">
          <mxGeometry relative="1" as="geometry" />
        </mxCell>
        <mxCell id="j8fhtU1hvzyhwvqFzkYq-7" value="&lt;span style=&quot;font-family: &amp;#34;arial&amp;#34; , sans-serif ; font-size: 15px&quot;&gt;Candidatura VITIS&lt;br&gt;recebida&lt;br style=&quot;font-size: 15px&quot;&gt;&lt;/span&gt;" style="points=[[0.145,0.145,0],[0.5,0,0],[0.855,0.145,0],[1,0.5,0],[0.855,0.855,0],[0.5,1,0],[0.145,0.855,0],[0,0.5,0]];shape=mxgraph.bpmn.event;html=1;verticalLabelPosition=bottom;labelBackgroundColor=#ffffff;verticalAlign=top;align=center;perimeter=ellipsePerimeter;outlineConnect=0;aspect=fixed;outline=standard;symbol=message;rounded=0;shadow=0;glass=0;sketch=0;fontSize=15;" parent="j8fhtU1hvzyhwvqFzkYq-1" vertex="1">
          <mxGeometry x="160" y="65" width="40" height="40" as="geometry" />
        </mxCell>
        <mxCell id="j8fhtU1hvzyhwvqFzkYq-9" value="Processamento candidatura" style="points=[[0.25,0,0],[0.5,0,0],[0.75,0,0],[1,0.25,0],[1,0.5,0],[1,0.75,0],[0.75,1,0],[0.5,1,0],[0.25,1,0],[0,0.75,0],[0,0.5,0],[0,0.25,0]];shape=mxgraph.bpmn.task;whiteSpace=wrap;rectStyle=rounded;size=10;taskMarker=service;rounded=0;shadow=0;glass=0;sketch=0;fontSize=15;" parent="j8fhtU1hvzyhwvqFzkYq-1" vertex="1">
          <mxGeometry x="280" y="45" width="120" height="80" as="geometry" />
        </mxCell>
        <mxCell id="j8fhtU1hvzyhwvqFzkYq-5" value="Viticultor" style="swimlane;html=1;startSize=60;fontStyle=0;collapsible=0;horizontal=0;swimlaneLine=1;swimlaneFillColor=none;strokeWidth=2;rounded=0;shadow=0;glass=0;fontSize=14;fillColor=none;" parent="1" vertex="1">
          <mxGeometry x="40" y="450" width="2820" height="100" as="geometry" />
        </mxCell>
        <mxCell id="IbKYtC_3RCh5xxz1OneK-86" style="edgeStyle=orthogonalEdgeStyle;rounded=0;jumpStyle=arc;orthogonalLoop=1;jettySize=auto;html=1;dashed=1;labelBackgroundColor=default;fontSize=15;startArrow=oval;startFill=0;endArrow=classic;endFill=1;strokeWidth=2;" parent="1" source="j8fhtU1hvzyhwvqFzkYq-5" target="j8fhtU1hvzyhwvqFzkYq-121" edge="1">
          <mxGeometry relative="1" as="geometry">
            <Array as="points">
              <mxPoint x="2155" y="1480" />
              <mxPoint x="2155" y="1480" />
            </Array>
          </mxGeometry>
        </mxCell>
        <mxCell id="j8fhtU1hvzyhwvqFzkYq-8" value="&lt;span style=&quot;color: rgb(0, 0, 0); font-family: helvetica; font-size: 15px; font-style: normal; font-weight: 400; letter-spacing: normal; text-align: center; text-indent: 0px; text-transform: none; word-spacing: 0px; display: inline; float: none;&quot;&gt;Candidatura &lt;br&gt;VITIS&lt;/span&gt;" style="edgeStyle=orthogonalEdgeStyle;rounded=0;orthogonalLoop=1;jettySize=auto;html=1;entryX=0;entryY=0.5;entryDx=0;entryDy=0;entryPerimeter=0;fontSize=15;dashed=1;startArrow=oval;startFill=0;strokeWidth=2;labelBackgroundColor=default;" parent="1" target="j8fhtU1hvzyhwvqFzkYq-7" edge="1">
          <mxGeometry x="-0.7209" relative="1" as="geometry">
            <mxPoint x="140" y="550" as="sourcePoint" />
            <Array as="points">
              <mxPoint x="140" y="685" />
            </Array>
            <mxPoint as="offset" />
          </mxGeometry>
        </mxCell>
        <mxCell id="j8fhtU1hvzyhwvqFzkYq-12" value="IVV" style="swimlane;html=1;startSize=20;fontStyle=0;collapsible=0;horizontal=0;swimlaneLine=1;swimlaneFillColor=none;strokeWidth=2;rounded=0;shadow=0;glass=0;fontSize=14;fillColor=none;" parent="1" vertex="1">
          <mxGeometry x="40" y="770" width="2820" height="270" as="geometry" />
        </mxCell>
        <mxCell id="j8fhtU1hvzyhwvqFzkYq-19" value="" style="edgeStyle=orthogonalEdgeStyle;rounded=0;jumpStyle=none;orthogonalLoop=1;jettySize=auto;html=1;fontSize=15;startArrow=none;startFill=0;strokeWidth=2;" parent="j8fhtU1hvzyhwvqFzkYq-12" source="j8fhtU1hvzyhwvqFzkYq-14" target="j8fhtU1hvzyhwvqFzkYq-18" edge="1">
          <mxGeometry relative="1" as="geometry" />
        </mxCell>
        <mxCell id="j8fhtU1hvzyhwvqFzkYq-23" style="edgeStyle=orthogonalEdgeStyle;rounded=0;jumpStyle=none;orthogonalLoop=1;jettySize=auto;html=1;entryX=0;entryY=0.5;entryDx=0;entryDy=0;entryPerimeter=0;fontSize=15;startArrow=none;startFill=0;strokeWidth=2;dashed=1;endArrow=open;endFill=0;" parent="j8fhtU1hvzyhwvqFzkYq-12" source="j8fhtU1hvzyhwvqFzkYq-14" target="j8fhtU1hvzyhwvqFzkYq-22" edge="1">
          <mxGeometry relative="1" as="geometry">
            <Array as="points">
              <mxPoint x="410" y="55" />
            </Array>
          </mxGeometry>
        </mxCell>
        <mxCell id="j8fhtU1hvzyhwvqFzkYq-14" value="&lt;font face=&quot;arial, sans-serif&quot;&gt;Candidaturas VITIS&lt;br&gt;&lt;/font&gt;" style="points=[[0.145,0.145,0],[0.5,0,0],[0.855,0.145,0],[1,0.5,0],[0.855,0.855,0],[0.5,1,0],[0.145,0.855,0],[0,0.5,0]];shape=mxgraph.bpmn.event;html=1;verticalLabelPosition=bottom;labelBackgroundColor=#ffffff;verticalAlign=top;align=center;perimeter=ellipsePerimeter;outlineConnect=0;aspect=fixed;outline=standard;symbol=message;rounded=0;shadow=0;glass=0;sketch=0;fontSize=15;" parent="j8fhtU1hvzyhwvqFzkYq-12" vertex="1">
          <mxGeometry x="390" y="140" width="40" height="40" as="geometry" />
        </mxCell>
        <mxCell id="j8fhtU1hvzyhwvqFzkYq-18" value="Identificação de parcelas" style="points=[[0.25,0,0],[0.5,0,0],[0.75,0,0],[1,0.25,0],[1,0.5,0],[1,0.75,0],[0.75,1,0],[0.5,1,0],[0.25,1,0],[0,0.75,0],[0,0.5,0],[0,0.25,0]];shape=mxgraph.bpmn.task;whiteSpace=wrap;rectStyle=rounded;size=10;taskMarker=abstract;isLoopStandard=1;isLoopSub=1;rounded=0;shadow=0;glass=0;sketch=0;fontSize=15;" parent="j8fhtU1hvzyhwvqFzkYq-12" vertex="1">
          <mxGeometry x="500" y="120" width="120" height="80" as="geometry" />
        </mxCell>
        <mxCell id="j8fhtU1hvzyhwvqFzkYq-24" style="edgeStyle=orthogonalEdgeStyle;rounded=0;jumpStyle=none;orthogonalLoop=1;jettySize=auto;html=1;dashed=1;fontSize=15;startArrow=none;startFill=0;endArrow=open;endFill=0;strokeWidth=2;" parent="j8fhtU1hvzyhwvqFzkYq-12" source="j8fhtU1hvzyhwvqFzkYq-22" target="j8fhtU1hvzyhwvqFzkYq-18" edge="1">
          <mxGeometry relative="1" as="geometry">
            <Array as="points">
              <mxPoint x="520" y="110" />
              <mxPoint x="520" y="110" />
            </Array>
          </mxGeometry>
        </mxCell>
        <mxCell id="j8fhtU1hvzyhwvqFzkYq-22" value="Candidatura" style="shape=mxgraph.bpmn.data;labelPosition=center;verticalLabelPosition=top;align=center;verticalAlign=bottom;whiteSpace=wrap;size=19;html=1;rounded=0;shadow=0;glass=0;sketch=0;fontSize=15;" parent="j8fhtU1hvzyhwvqFzkYq-12" vertex="1">
          <mxGeometry x="500" y="30" width="40" height="50" as="geometry" />
        </mxCell>
        <mxCell id="j8fhtU1hvzyhwvqFzkYq-29" style="edgeStyle=orthogonalEdgeStyle;rounded=0;jumpStyle=none;orthogonalLoop=1;jettySize=auto;html=1;fontSize=15;startArrow=none;startFill=0;endArrow=open;endFill=0;strokeWidth=2;dashed=1;" parent="j8fhtU1hvzyhwvqFzkYq-12" source="j8fhtU1hvzyhwvqFzkYq-27" edge="1">
          <mxGeometry relative="1" as="geometry">
            <mxPoint x="600" y="120" as="targetPoint" />
            <Array as="points">
              <mxPoint x="600" y="120" />
            </Array>
          </mxGeometry>
        </mxCell>
        <mxCell id="j8fhtU1hvzyhwvqFzkYq-27" value="SIVV" style="shape=datastore;labelPosition=center;verticalLabelPosition=top;align=center;verticalAlign=bottom;rounded=0;shadow=0;glass=0;sketch=0;fontSize=15;html=1;" parent="j8fhtU1hvzyhwvqFzkYq-12" vertex="1">
          <mxGeometry x="580" y="30" width="40" height="50" as="geometry" />
        </mxCell>
        <mxCell id="A43F4s2ZnalGoexAEKTJ-45" value="1a" style="ellipse;whiteSpace=wrap;html=1;strokeWidth=2;fillWeight=2;hachureGap=8;fillColor=#3399FF;fillStyle=dashed;sketch=1;fontSize=20;fontColor=#000000;fontStyle=1;labelBackgroundColor=none;labelBorderColor=none;jiggle=1;" parent="j8fhtU1hvzyhwvqFzkYq-12" vertex="1">
          <mxGeometry x="210" y="170" width="40" height="40" as="geometry" />
        </mxCell>
        <mxCell id="j8fhtU1hvzyhwvqFzkYq-16" style="edgeStyle=orthogonalEdgeStyle;rounded=0;orthogonalLoop=1;jettySize=auto;html=1;entryX=0;entryY=0.5;entryDx=0;entryDy=0;entryPerimeter=0;fontSize=15;startArrow=oval;startFill=0;strokeWidth=2;dashed=1;jumpStyle=none;" parent="1" source="j8fhtU1hvzyhwvqFzkYq-9" target="j8fhtU1hvzyhwvqFzkYq-14" edge="1">
          <mxGeometry relative="1" as="geometry">
            <Array as="points">
              <mxPoint x="380" y="930" />
            </Array>
          </mxGeometry>
        </mxCell>
        <mxCell id="j8fhtU1hvzyhwvqFzkYq-30" value="PORVID" style="swimlane;html=1;startSize=20;fontStyle=0;collapsible=0;horizontal=0;swimlaneLine=1;swimlaneFillColor=none;strokeWidth=2;rounded=0;shadow=0;glass=0;sketch=0;fontSize=15;align=center;verticalAlign=bottom;fillColor=none;" parent="1" vertex="1">
          <mxGeometry x="40" y="1040" width="2820" height="410" as="geometry" />
        </mxCell>
        <mxCell id="A43F4s2ZnalGoexAEKTJ-1" value="" style="rounded=0;whiteSpace=wrap;html=1;labelBackgroundColor=none;fontSize=20;strokeWidth=2;fillColor=#dae8fc;gradientDirection=south;dashed=1;strokeColor=#6c8ebf;" parent="j8fhtU1hvzyhwvqFzkYq-30" vertex="1">
          <mxGeometry x="740" y="30" width="210" height="310" as="geometry" />
        </mxCell>
        <mxCell id="A43F4s2ZnalGoexAEKTJ-42" value="" style="rounded=0;whiteSpace=wrap;html=1;labelBackgroundColor=none;fontSize=20;strokeWidth=2;fillColor=#dae8fc;gradientDirection=south;dashed=1;strokeColor=#6c8ebf;" parent="j8fhtU1hvzyhwvqFzkYq-30" vertex="1">
          <mxGeometry x="1200" y="65" width="900" height="225" as="geometry" />
        </mxCell>
        <mxCell id="7a99WiWWtlT3RzwQKHeO-5" style="edgeStyle=orthogonalEdgeStyle;rounded=0;orthogonalLoop=1;jettySize=auto;html=1;fontSize=15;strokeWidth=2;" parent="j8fhtU1hvzyhwvqFzkYq-30" source="j8fhtU1hvzyhwvqFzkYq-31" target="j8fhtU1hvzyhwvqFzkYq-91" edge="1">
          <mxGeometry relative="1" as="geometry" />
        </mxCell>
        <mxCell id="j8fhtU1hvzyhwvqFzkYq-31" value="&lt;font face=&quot;arial, sans-serif&quot;&gt;Listagem de parcelas&lt;br&gt;&lt;/font&gt;" style="points=[[0.145,0.145,0],[0.5,0,0],[0.855,0.145,0],[1,0.5,0],[0.855,0.855,0],[0.5,1,0],[0.145,0.855,0],[0,0.5,0]];shape=mxgraph.bpmn.event;html=1;verticalLabelPosition=bottom;labelBackgroundColor=#ffffff;verticalAlign=top;align=center;perimeter=ellipsePerimeter;outlineConnect=0;aspect=fixed;outline=standard;symbol=message;rounded=0;shadow=0;glass=0;sketch=0;fontSize=15;whiteSpace=wrap;" parent="j8fhtU1hvzyhwvqFzkYq-30" vertex="1">
          <mxGeometry x="650" y="120" width="40" height="40" as="geometry" />
        </mxCell>
        <mxCell id="j8fhtU1hvzyhwvqFzkYq-58" value="Sem interesse" style="edgeStyle=orthogonalEdgeStyle;rounded=0;jumpStyle=none;orthogonalLoop=1;jettySize=auto;html=1;fontSize=15;startArrow=none;startFill=0;endArrow=classic;endFill=1;strokeWidth=2;" parent="j8fhtU1hvzyhwvqFzkYq-30" source="j8fhtU1hvzyhwvqFzkYq-49" target="j8fhtU1hvzyhwvqFzkYq-61" edge="1">
          <mxGeometry x="-0.0667" relative="1" as="geometry">
            <mxPoint x="1180" y="140.5" as="targetPoint" />
            <mxPoint as="offset" />
          </mxGeometry>
        </mxCell>
        <mxCell id="j8fhtU1hvzyhwvqFzkYq-59" value="Com interesse" style="edgeStyle=orthogonalEdgeStyle;rounded=0;jumpStyle=none;orthogonalLoop=1;jettySize=auto;html=1;fontSize=15;startArrow=none;startFill=0;endArrow=classic;endFill=1;strokeWidth=2;entryX=0;entryY=0.5;entryDx=0;entryDy=0;entryPerimeter=0;" parent="j8fhtU1hvzyhwvqFzkYq-30" source="j8fhtU1hvzyhwvqFzkYq-49" target="j8fhtU1hvzyhwvqFzkYq-98" edge="1">
          <mxGeometry x="0.3333" relative="1" as="geometry">
            <mxPoint x="1010" y="430" as="targetPoint" />
            <Array as="points">
              <mxPoint x="1005" y="235" />
            </Array>
            <mxPoint as="offset" />
          </mxGeometry>
        </mxCell>
        <mxCell id="j8fhtU1hvzyhwvqFzkYq-49" value="" style="points=[[0.25,0.25,0],[0.5,0,0],[0.75,0.25,0],[1,0.5,0],[0.75,0.75,0],[0.5,1,0],[0.25,0.75,0],[0,0.5,0]];shape=mxgraph.bpmn.gateway2;html=1;verticalLabelPosition=bottom;labelBackgroundColor=#ffffff;verticalAlign=top;align=center;perimeter=rhombusPerimeter;outlineConnect=0;outline=none;symbol=none;gwType=exclusive;rounded=0;shadow=0;glass=0;sketch=0;fontSize=15;" parent="j8fhtU1hvzyhwvqFzkYq-30" vertex="1">
          <mxGeometry x="980" y="115.5" width="50" height="50" as="geometry" />
        </mxCell>
        <mxCell id="j8fhtU1hvzyhwvqFzkYq-65" style="edgeStyle=orthogonalEdgeStyle;rounded=0;jumpStyle=none;orthogonalLoop=1;jettySize=auto;html=1;fontSize=15;startArrow=none;startFill=0;endArrow=classic;endFill=1;strokeWidth=2;exitX=1;exitY=0.5;exitDx=0;exitDy=0;exitPerimeter=0;" parent="j8fhtU1hvzyhwvqFzkYq-30" source="j8fhtU1hvzyhwvqFzkYq-51" target="j8fhtU1hvzyhwvqFzkYq-64" edge="1">
          <mxGeometry relative="1" as="geometry">
            <mxPoint x="1405" y="235" as="sourcePoint" />
            <Array as="points">
              <mxPoint x="1435" y="235" />
              <mxPoint x="1435" y="135" />
            </Array>
          </mxGeometry>
        </mxCell>
        <mxCell id="j8fhtU1hvzyhwvqFzkYq-51" value="Verificar consentimento partilha informação" style="points=[[0.25,0,0],[0.5,0,0],[0.75,0,0],[1,0.25,0],[1,0.5,0],[1,0.75,0],[0.75,1,0],[0.5,1,0],[0.25,1,0],[0,0.75,0],[0,0.5,0],[0,0.25,0]];shape=mxgraph.bpmn.task;whiteSpace=wrap;rectStyle=rounded;size=10;taskMarker=abstract;rounded=0;shadow=0;glass=0;sketch=0;fontSize=15;align=center;verticalAlign=middle;html=1;" parent="j8fhtU1hvzyhwvqFzkYq-30" vertex="1">
          <mxGeometry x="1215" y="195" width="150" height="80" as="geometry" />
        </mxCell>
        <mxCell id="j8fhtU1hvzyhwvqFzkYq-61" value="" style="points=[[0.145,0.145,0],[0.5,0,0],[0.855,0.145,0],[1,0.5,0],[0.855,0.855,0],[0.5,1,0],[0.145,0.855,0],[0,0.5,0]];shape=mxgraph.bpmn.event;html=1;verticalLabelPosition=bottom;labelBackgroundColor=#ffffff;verticalAlign=top;align=center;perimeter=ellipsePerimeter;outlineConnect=0;aspect=fixed;outline=end;symbol=terminate2;rounded=0;shadow=0;glass=0;sketch=0;fontSize=15;" parent="j8fhtU1hvzyhwvqFzkYq-30" vertex="1">
          <mxGeometry x="1225" y="115.5" width="50" height="50" as="geometry" />
        </mxCell>
        <mxCell id="j8fhtU1hvzyhwvqFzkYq-67" value="Concedido" style="edgeStyle=orthogonalEdgeStyle;rounded=0;jumpStyle=none;orthogonalLoop=1;jettySize=auto;html=1;fontSize=15;startArrow=none;startFill=0;endArrow=classic;endFill=1;strokeWidth=2;entryX=0;entryY=0.5;entryDx=0;entryDy=0;entryPerimeter=0;" parent="j8fhtU1hvzyhwvqFzkYq-30" source="j8fhtU1hvzyhwvqFzkYq-64" target="j8fhtU1hvzyhwvqFzkYq-103" edge="1">
          <mxGeometry relative="1" as="geometry">
            <mxPoint x="1575" y="220" as="targetPoint" />
            <Array as="points">
              <mxPoint x="1480" y="235" />
            </Array>
          </mxGeometry>
        </mxCell>
        <mxCell id="j8fhtU1hvzyhwvqFzkYq-72" value="Não concedido" style="edgeStyle=orthogonalEdgeStyle;rounded=0;jumpStyle=none;orthogonalLoop=1;jettySize=auto;html=1;fontSize=15;startArrow=none;startFill=0;endArrow=classic;endFill=1;strokeWidth=2;" parent="j8fhtU1hvzyhwvqFzkYq-30" source="j8fhtU1hvzyhwvqFzkYq-64" target="j8fhtU1hvzyhwvqFzkYq-71" edge="1">
          <mxGeometry x="-0.125" relative="1" as="geometry">
            <Array as="points">
              <mxPoint x="1575" y="135" />
              <mxPoint x="1575" y="135" />
            </Array>
            <mxPoint as="offset" />
          </mxGeometry>
        </mxCell>
        <mxCell id="j8fhtU1hvzyhwvqFzkYq-64" value="" style="points=[[0.25,0.25,0],[0.5,0,0],[0.75,0.25,0],[1,0.5,0],[0.75,0.75,0],[0.5,1,0],[0.25,0.75,0],[0,0.5,0]];shape=mxgraph.bpmn.gateway2;html=1;verticalLabelPosition=bottom;labelBackgroundColor=#ffffff;verticalAlign=top;align=center;perimeter=rhombusPerimeter;outlineConnect=0;outline=none;symbol=none;gwType=exclusive;rounded=0;shadow=0;glass=0;sketch=0;fontSize=15;" parent="j8fhtU1hvzyhwvqFzkYq-30" vertex="1">
          <mxGeometry x="1455" y="110" width="50" height="50" as="geometry" />
        </mxCell>
        <mxCell id="j8fhtU1hvzyhwvqFzkYq-76" style="edgeStyle=orthogonalEdgeStyle;rounded=0;jumpStyle=none;orthogonalLoop=1;jettySize=auto;html=1;fontSize=15;startArrow=none;startFill=0;endArrow=classic;endFill=1;strokeWidth=2;" parent="j8fhtU1hvzyhwvqFzkYq-30" source="j8fhtU1hvzyhwvqFzkYq-66" target="j8fhtU1hvzyhwvqFzkYq-74" edge="1">
          <mxGeometry relative="1" as="geometry" />
        </mxCell>
        <mxCell id="j8fhtU1hvzyhwvqFzkYq-66" value="Agendar visita às vinhas" style="points=[[0.25,0,0],[0.5,0,0],[0.75,0,0],[1,0.25,0],[1,0.5,0],[1,0.75,0],[0.75,1,0],[0.5,1,0],[0.25,1,0],[0,0.75,0],[0,0.5,0],[0,0.25,0]];shape=mxgraph.bpmn.task;whiteSpace=wrap;rectStyle=rounded;size=10;taskMarker=send;rounded=0;shadow=0;glass=0;sketch=0;fontSize=15;align=center;verticalAlign=middle;html=1;" parent="j8fhtU1hvzyhwvqFzkYq-30" vertex="1">
          <mxGeometry x="1850" y="195" width="130" height="80" as="geometry" />
        </mxCell>
        <mxCell id="IbKYtC_3RCh5xxz1OneK-45" style="edgeStyle=orthogonalEdgeStyle;rounded=0;orthogonalLoop=1;jettySize=auto;html=1;dashed=1;endArrow=open;endFill=0;strokeWidth=2;" parent="j8fhtU1hvzyhwvqFzkYq-30" source="j8fhtU1hvzyhwvqFzkYq-68" target="j8fhtU1hvzyhwvqFzkYq-91" edge="1">
          <mxGeometry relative="1" as="geometry" />
        </mxCell>
        <mxCell id="j8fhtU1hvzyhwvqFzkYq-68" value="BD PORVID" style="shape=datastore;labelPosition=center;verticalLabelPosition=bottom;align=center;verticalAlign=top;rounded=0;shadow=0;glass=0;sketch=0;fontSize=15;html=1;" parent="j8fhtU1hvzyhwvqFzkYq-30" vertex="1">
          <mxGeometry x="825" y="230" width="40" height="50" as="geometry" />
        </mxCell>
        <mxCell id="IbKYtC_3RCh5xxz1OneK-88" style="edgeStyle=orthogonalEdgeStyle;rounded=0;jumpStyle=arc;orthogonalLoop=1;jettySize=auto;html=1;labelBackgroundColor=default;fontSize=15;startArrow=none;startFill=0;endArrow=classic;endFill=1;strokeWidth=2;" parent="j8fhtU1hvzyhwvqFzkYq-30" source="j8fhtU1hvzyhwvqFzkYq-71" target="IbKYtC_3RCh5xxz1OneK-173" edge="1">
          <mxGeometry relative="1" as="geometry" />
        </mxCell>
        <mxCell id="j8fhtU1hvzyhwvqFzkYq-71" value="Notificar&amp;nbsp;&lt;span style=&quot;font-size: 14px&quot;&gt;DRAP&lt;/span&gt;" style="points=[[0.25,0,0],[0.5,0,0],[0.75,0,0],[1,0.25,0],[1,0.5,0],[1,0.75,0],[0.75,1,0],[0.5,1,0],[0.25,1,0],[0,0.75,0],[0,0.5,0],[0,0.25,0]];shape=mxgraph.bpmn.task;whiteSpace=wrap;rectStyle=rounded;size=10;taskMarker=send;rounded=0;shadow=0;glass=0;sketch=0;fontSize=15;align=center;verticalAlign=middle;html=1;" parent="j8fhtU1hvzyhwvqFzkYq-30" vertex="1">
          <mxGeometry x="1690" y="95" width="130" height="80" as="geometry" />
        </mxCell>
        <mxCell id="IbKYtC_3RCh5xxz1OneK-193" style="edgeStyle=orthogonalEdgeStyle;rounded=0;jumpStyle=arc;orthogonalLoop=1;jettySize=auto;html=1;labelBackgroundColor=default;fontSize=15;startArrow=oval;startFill=0;endArrow=classic;endFill=1;strokeWidth=2;" parent="j8fhtU1hvzyhwvqFzkYq-30" source="j8fhtU1hvzyhwvqFzkYq-74" target="j8fhtU1hvzyhwvqFzkYq-77" edge="1">
          <mxGeometry relative="1" as="geometry" />
        </mxCell>
        <mxCell id="j8fhtU1hvzyhwvqFzkYq-74" value="Agendamento" style="points=[[0.145,0.145,0],[0.5,0,0],[0.855,0.145,0],[1,0.5,0],[0.855,0.855,0],[0.5,1,0],[0.145,0.855,0],[0,0.5,0]];shape=mxgraph.bpmn.event;html=1;verticalLabelPosition=bottom;labelBackgroundColor=none;verticalAlign=top;align=center;perimeter=ellipsePerimeter;outlineConnect=0;aspect=fixed;outline=catching;symbol=message;rounded=0;shadow=0;glass=0;sketch=0;fontSize=15;" parent="j8fhtU1hvzyhwvqFzkYq-30" vertex="1">
          <mxGeometry x="2030" y="210" width="50" height="50" as="geometry" />
        </mxCell>
        <mxCell id="j8fhtU1hvzyhwvqFzkYq-99" style="edgeStyle=orthogonalEdgeStyle;rounded=0;jumpStyle=none;orthogonalLoop=1;jettySize=auto;html=1;fontSize=15;startArrow=none;startFill=0;endArrow=classic;endFill=1;strokeWidth=2;" parent="j8fhtU1hvzyhwvqFzkYq-30" source="j8fhtU1hvzyhwvqFzkYq-98" target="j8fhtU1hvzyhwvqFzkYq-51" edge="1">
          <mxGeometry relative="1" as="geometry">
            <mxPoint x="1155" y="235" as="sourcePoint" />
          </mxGeometry>
        </mxCell>
        <mxCell id="j8fhtU1hvzyhwvqFzkYq-98" value="" style="points=[[0.25,0.25,0],[0.5,0,0],[0.75,0.25,0],[1,0.5,0],[0.75,0.75,0],[0.5,1,0],[0.25,0.75,0],[0,0.5,0]];shape=mxgraph.bpmn.gateway2;html=1;verticalLabelPosition=bottom;labelBackgroundColor=#ffffff;verticalAlign=top;align=center;perimeter=rhombusPerimeter;outlineConnect=0;outline=none;symbol=none;gwType=parallel;rounded=0;shadow=0;glass=0;sketch=0;fontSize=15;fillColor=none;" parent="j8fhtU1hvzyhwvqFzkYq-30" vertex="1">
          <mxGeometry x="1135" y="210" width="50" height="50" as="geometry" />
        </mxCell>
        <mxCell id="j8fhtU1hvzyhwvqFzkYq-105" style="edgeStyle=orthogonalEdgeStyle;rounded=0;jumpStyle=none;orthogonalLoop=1;jettySize=auto;html=1;fontSize=15;startArrow=none;startFill=0;endArrow=classic;endFill=1;strokeWidth=2;" parent="j8fhtU1hvzyhwvqFzkYq-30" source="j8fhtU1hvzyhwvqFzkYq-103" target="j8fhtU1hvzyhwvqFzkYq-66" edge="1">
          <mxGeometry relative="1" as="geometry" />
        </mxCell>
        <mxCell id="j8fhtU1hvzyhwvqFzkYq-103" value="" style="points=[[0.25,0.25,0],[0.5,0,0],[0.75,0.25,0],[1,0.5,0],[0.75,0.75,0],[0.5,1,0],[0.25,0.75,0],[0,0.5,0]];shape=mxgraph.bpmn.gateway2;html=1;verticalLabelPosition=bottom;labelBackgroundColor=#ffffff;verticalAlign=top;align=center;perimeter=rhombusPerimeter;outlineConnect=0;outline=none;symbol=none;gwType=parallel;rounded=0;shadow=0;glass=0;sketch=0;fontSize=15;fillColor=none;" parent="j8fhtU1hvzyhwvqFzkYq-30" vertex="1">
          <mxGeometry x="1675" y="210" width="50" height="50" as="geometry" />
        </mxCell>
        <mxCell id="IbKYtC_3RCh5xxz1OneK-177" style="edgeStyle=orthogonalEdgeStyle;rounded=0;jumpStyle=arc;orthogonalLoop=1;jettySize=auto;html=1;labelBackgroundColor=default;fontSize=15;startArrow=none;startFill=0;endArrow=classic;endFill=1;strokeWidth=2;" parent="j8fhtU1hvzyhwvqFzkYq-30" source="j8fhtU1hvzyhwvqFzkYq-77" target="IbKYtC_3RCh5xxz1OneK-175" edge="1">
          <mxGeometry relative="1" as="geometry" />
        </mxCell>
        <mxCell id="j8fhtU1hvzyhwvqFzkYq-77" value="Validação/recolha de amostras" style="points=[[0.25,0,0],[0.5,0,0],[0.75,0,0],[1,0.25,0],[1,0.5,0],[1,0.75,0],[0.75,1,0],[0.5,1,0],[0.25,1,0],[0,0.75,0],[0,0.5,0],[0,0.25,0]];shape=mxgraph.bpmn.task;whiteSpace=wrap;rectStyle=rounded;size=10;taskMarker=user;rounded=0;shadow=0;glass=0;sketch=0;fontSize=15;align=center;verticalAlign=middle;html=1;" parent="j8fhtU1hvzyhwvqFzkYq-30" vertex="1">
          <mxGeometry x="2190" y="194" width="120" height="80" as="geometry" />
        </mxCell>
        <mxCell id="al4PJ4pm5zgEQlfIhQZX-3" value="Optimização de recolhas" style="points=[[0.25,0,0],[0.5,0,0],[0.75,0,0],[1,0.25,0],[1,0.5,0],[1,0.75,0],[0.75,1,0],[0.5,1,0],[0.25,1,0],[0,0.75,0],[0,0.5,0],[0,0.25,0]];shape=mxgraph.bpmn.task;whiteSpace=wrap;rectStyle=rounded;size=10;taskMarker=abstract;isLoopStandard=1;isLoopSub=1;fillColor=#dae8fc;strokeColor=#6c8ebf;" parent="j8fhtU1hvzyhwvqFzkYq-30" vertex="1">
          <mxGeometry x="1315" y="310" width="120" height="80" as="geometry" />
        </mxCell>
        <mxCell id="j8fhtU1hvzyhwvqFzkYq-100" style="edgeStyle=orthogonalEdgeStyle;rounded=0;jumpStyle=none;orthogonalLoop=1;jettySize=auto;html=1;fontSize=15;startArrow=none;startFill=0;endArrow=classic;endFill=1;strokeWidth=2;entryX=0;entryY=0.5;entryDx=0;entryDy=0;entryPerimeter=0;" parent="j8fhtU1hvzyhwvqFzkYq-30" source="j8fhtU1hvzyhwvqFzkYq-98" target="al4PJ4pm5zgEQlfIhQZX-3" edge="1">
          <mxGeometry relative="1" as="geometry">
            <Array as="points">
              <mxPoint x="1160" y="350" />
            </Array>
            <mxPoint x="1130" y="260" as="sourcePoint" />
          </mxGeometry>
        </mxCell>
        <mxCell id="j8fhtU1hvzyhwvqFzkYq-104" style="edgeStyle=orthogonalEdgeStyle;rounded=0;jumpStyle=none;orthogonalLoop=1;jettySize=auto;html=1;fontSize=15;startArrow=none;startFill=0;endArrow=classic;endFill=1;strokeWidth=2;" parent="j8fhtU1hvzyhwvqFzkYq-30" source="al4PJ4pm5zgEQlfIhQZX-3" target="j8fhtU1hvzyhwvqFzkYq-103" edge="1">
          <mxGeometry relative="1" as="geometry">
            <mxPoint x="1405" y="328" as="sourcePoint" />
          </mxGeometry>
        </mxCell>
        <mxCell id="A43F4s2ZnalGoexAEKTJ-2" value="2a" style="ellipse;whiteSpace=wrap;html=1;strokeWidth=2;fillWeight=2;hachureGap=8;fillColor=#3399FF;fillStyle=dashed;sketch=1;fontSize=20;fontColor=#000000;fontStyle=1;labelBackgroundColor=none;labelBorderColor=none;jiggle=1;" parent="j8fhtU1hvzyhwvqFzkYq-30" vertex="1">
          <mxGeometry x="930" y="325" width="40" height="40" as="geometry" />
        </mxCell>
        <mxCell id="A43F4s2ZnalGoexAEKTJ-41" value="3" style="ellipse;whiteSpace=wrap;html=1;strokeWidth=2;fillWeight=2;hachureGap=8;fillColor=#3399FF;fillStyle=dashed;sketch=1;fontSize=20;fontColor=#000000;fontStyle=1;labelBackgroundColor=none;labelBorderColor=none;jiggle=1;" parent="j8fhtU1hvzyhwvqFzkYq-30" vertex="1">
          <mxGeometry x="1415" y="360" width="40" height="40" as="geometry" />
        </mxCell>
        <mxCell id="A43F4s2ZnalGoexAEKTJ-44" value="2b" style="ellipse;whiteSpace=wrap;html=1;strokeWidth=2;fillWeight=2;hachureGap=8;fillColor=#3399FF;fillStyle=dashed;sketch=1;fontSize=20;fontColor=#000000;fontStyle=1;labelBackgroundColor=none;labelBorderColor=none;jiggle=1;" parent="j8fhtU1hvzyhwvqFzkYq-30" vertex="1">
          <mxGeometry x="1175" y="40" width="40" height="40" as="geometry" />
        </mxCell>
        <mxCell id="IbKYtC_3RCh5xxz1OneK-46" style="edgeStyle=orthogonalEdgeStyle;rounded=0;orthogonalLoop=1;jettySize=auto;html=1;endArrow=classic;endFill=1;strokeWidth=2;" parent="j8fhtU1hvzyhwvqFzkYq-30" source="j8fhtU1hvzyhwvqFzkYq-91" target="j8fhtU1hvzyhwvqFzkYq-49" edge="1">
          <mxGeometry relative="1" as="geometry" />
        </mxCell>
        <mxCell id="j8fhtU1hvzyhwvqFzkYq-91" value="&lt;span&gt;Decisão sobre parcelas a prospetar&lt;/span&gt;" style="points=[[0.25,0,0],[0.5,0,0],[0.75,0,0],[1,0.25,0],[1,0.5,0],[1,0.75,0],[0.75,1,0],[0.5,1,0],[0.25,1,0],[0,0.75,0],[0,0.5,0],[0,0.25,0]];shape=mxgraph.bpmn.task;whiteSpace=wrap;rectStyle=rounded;size=10;taskMarker=abstract;isLoopSub=1;rounded=0;shadow=0;glass=0;sketch=0;fontSize=15;align=center;verticalAlign=middle;html=1;fillColor=none;" parent="j8fhtU1hvzyhwvqFzkYq-30" vertex="1">
          <mxGeometry x="770" y="95" width="150" height="90" as="geometry" />
        </mxCell>
        <mxCell id="IbKYtC_3RCh5xxz1OneK-174" style="edgeStyle=orthogonalEdgeStyle;rounded=0;jumpStyle=arc;orthogonalLoop=1;jettySize=auto;html=1;labelBackgroundColor=default;fontSize=15;startArrow=none;startFill=0;endArrow=classic;endFill=1;strokeWidth=2;" parent="j8fhtU1hvzyhwvqFzkYq-30" source="IbKYtC_3RCh5xxz1OneK-173" target="j8fhtU1hvzyhwvqFzkYq-77" edge="1">
          <mxGeometry relative="1" as="geometry">
            <Array as="points">
              <mxPoint x="2230" y="135" />
            </Array>
          </mxGeometry>
        </mxCell>
        <mxCell id="IbKYtC_3RCh5xxz1OneK-173" value="Notificação DRAP" style="points=[[0.145,0.145,0],[0.5,0,0],[0.855,0.145,0],[1,0.5,0],[0.855,0.855,0],[0.5,1,0],[0.145,0.855,0],[0,0.5,0]];shape=mxgraph.bpmn.event;html=1;verticalLabelPosition=top;labelBackgroundColor=#ffffff;verticalAlign=bottom;align=center;perimeter=ellipsePerimeter;outlineConnect=0;aspect=fixed;outline=standard;symbol=message;fontSize=15;strokeWidth=2;labelPosition=center;" parent="j8fhtU1hvzyhwvqFzkYq-30" vertex="1">
          <mxGeometry x="2160" y="115" width="40" height="40" as="geometry" />
        </mxCell>
        <mxCell id="IbKYtC_3RCh5xxz1OneK-184" style="edgeStyle=orthogonalEdgeStyle;rounded=0;jumpStyle=arc;orthogonalLoop=1;jettySize=auto;html=1;labelBackgroundColor=default;fontSize=15;startArrow=none;startFill=0;endArrow=open;endFill=0;strokeWidth=2;dashed=1;" parent="j8fhtU1hvzyhwvqFzkYq-30" source="IbKYtC_3RCh5xxz1OneK-175" target="IbKYtC_3RCh5xxz1OneK-182" edge="1">
          <mxGeometry relative="1" as="geometry" />
        </mxCell>
        <mxCell id="IbKYtC_3RCh5xxz1OneK-186" style="edgeStyle=orthogonalEdgeStyle;rounded=0;jumpStyle=arc;orthogonalLoop=1;jettySize=auto;html=1;labelBackgroundColor=default;fontSize=15;startArrow=none;startFill=0;endArrow=classic;endFill=1;strokeWidth=2;" parent="j8fhtU1hvzyhwvqFzkYq-30" source="IbKYtC_3RCh5xxz1OneK-175" target="IbKYtC_3RCh5xxz1OneK-185" edge="1">
          <mxGeometry relative="1" as="geometry" />
        </mxCell>
        <mxCell id="IbKYtC_3RCh5xxz1OneK-175" value="Atualização BD PORVID" style="points=[[0.25,0,0],[0.5,0,0],[0.75,0,0],[1,0.25,0],[1,0.5,0],[1,0.75,0],[0.75,1,0],[0.5,1,0],[0.25,1,0],[0,0.75,0],[0,0.5,0],[0,0.25,0]];shape=mxgraph.bpmn.task;whiteSpace=wrap;rectStyle=rounded;size=10;taskMarker=abstract;rounded=0;shadow=0;glass=0;sketch=0;fontSize=15;align=center;verticalAlign=middle;html=1;" parent="j8fhtU1hvzyhwvqFzkYq-30" vertex="1">
          <mxGeometry x="2350" y="194" width="150" height="80" as="geometry" />
        </mxCell>
        <mxCell id="IbKYtC_3RCh5xxz1OneK-182" value="BD PORVID" style="shape=datastore;labelPosition=center;verticalLabelPosition=top;align=center;verticalAlign=bottom;rounded=0;shadow=0;glass=0;sketch=0;fontSize=15;html=1;" parent="j8fhtU1hvzyhwvqFzkYq-30" vertex="1">
          <mxGeometry x="2405" y="105" width="40" height="50" as="geometry" />
        </mxCell>
        <mxCell id="IbKYtC_3RCh5xxz1OneK-185" value="Notificar&amp;nbsp;&lt;span style=&quot;font-size: 14px&quot;&gt;DRAP&lt;/span&gt;" style="points=[[0.25,0,0],[0.5,0,0],[0.75,0,0],[1,0.25,0],[1,0.5,0],[1,0.75,0],[0.75,1,0],[0.5,1,0],[0.25,1,0],[0,0.75,0],[0,0.5,0],[0,0.25,0]];shape=mxgraph.bpmn.task;whiteSpace=wrap;rectStyle=rounded;size=10;taskMarker=send;rounded=0;shadow=0;glass=0;sketch=0;fontSize=15;align=center;verticalAlign=middle;html=1;" parent="j8fhtU1hvzyhwvqFzkYq-30" vertex="1">
          <mxGeometry x="2540" y="194" width="130" height="80" as="geometry" />
        </mxCell>
        <mxCell id="j8fhtU1hvzyhwvqFzkYq-32" style="edgeStyle=orthogonalEdgeStyle;rounded=0;jumpStyle=none;orthogonalLoop=1;jettySize=auto;html=1;entryX=0;entryY=0.5;entryDx=0;entryDy=0;entryPerimeter=0;dashed=1;fontSize=15;startArrow=oval;startFill=0;endArrow=classic;endFill=1;strokeWidth=2;" parent="1" source="j8fhtU1hvzyhwvqFzkYq-18" target="j8fhtU1hvzyhwvqFzkYq-31" edge="1">
          <mxGeometry relative="1" as="geometry">
            <Array as="points">
              <mxPoint x="600" y="1180" />
            </Array>
            <mxPoint x="630" y="1100" as="sourcePoint" />
          </mxGeometry>
        </mxCell>
        <mxCell id="j8fhtU1hvzyhwvqFzkYq-73" style="edgeStyle=orthogonalEdgeStyle;rounded=0;jumpStyle=arc;orthogonalLoop=1;jettySize=auto;html=1;fontSize=15;startArrow=oval;startFill=0;endArrow=open;endFill=0;strokeWidth=2;dashed=1;" parent="1" source="j8fhtU1hvzyhwvqFzkYq-66" edge="1">
          <mxGeometry relative="1" as="geometry">
            <mxPoint x="1955" y="550" as="targetPoint" />
            <Array as="points">
              <mxPoint x="1955" y="690" />
            </Array>
          </mxGeometry>
        </mxCell>
        <mxCell id="j8fhtU1hvzyhwvqFzkYq-75" style="edgeStyle=orthogonalEdgeStyle;rounded=0;jumpStyle=arc;orthogonalLoop=1;jettySize=auto;html=1;dashed=1;fontSize=15;startArrow=oval;startFill=0;endArrow=classic;endFill=1;strokeWidth=2;" parent="1" target="j8fhtU1hvzyhwvqFzkYq-74" edge="1">
          <mxGeometry relative="1" as="geometry">
            <mxPoint x="2095" y="550" as="sourcePoint" />
            <Array as="points">
              <mxPoint x="2095" y="900" />
              <mxPoint x="2095" y="900" />
            </Array>
          </mxGeometry>
        </mxCell>
        <mxCell id="A43F4s2ZnalGoexAEKTJ-3" value="&lt;span style=&quot;font-size: 15px ; background-color: rgb(255 , 255 , 255)&quot;&gt;PN3. Optimização de Recolhas&lt;/span&gt;" style="swimlane;html=1;childLayout=stackLayout;resizeParent=1;resizeParentMax=0;horizontal=1;startSize=20;horizontalStack=0;" parent="1" vertex="1">
          <mxGeometry x="40" y="2440" width="2080" height="560" as="geometry">
            <mxRectangle x="40" y="1730" width="250" height="20" as="alternateBounds" />
          </mxGeometry>
        </mxCell>
        <mxCell id="A43F4s2ZnalGoexAEKTJ-38" style="edgeStyle=orthogonalEdgeStyle;rounded=0;orthogonalLoop=1;jettySize=auto;html=1;fontSize=15;startArrow=oval;startFill=0;endArrow=classic;endFill=1;strokeWidth=2;dashed=1;" parent="A43F4s2ZnalGoexAEKTJ-3" source="A43F4s2ZnalGoexAEKTJ-36" target="LDm_sBTLsoFuQMDqbDht-15" edge="1">
          <mxGeometry relative="1" as="geometry">
            <Array as="points">
              <mxPoint x="465" y="290" />
              <mxPoint x="465" y="290" />
            </Array>
            <mxPoint x="850" y="450" as="targetPoint" />
          </mxGeometry>
        </mxCell>
        <mxCell id="A43F4s2ZnalGoexAEKTJ-4" value="&lt;span style=&quot;font-size: 15px&quot;&gt;PORVID&lt;/span&gt;" style="swimlane;html=1;startSize=20;horizontal=0;" parent="A43F4s2ZnalGoexAEKTJ-3" vertex="1">
          <mxGeometry y="20" width="2080" height="320" as="geometry" />
        </mxCell>
        <mxCell id="IbKYtC_3RCh5xxz1OneK-171" style="edgeStyle=orthogonalEdgeStyle;rounded=0;jumpStyle=arc;orthogonalLoop=1;jettySize=auto;html=1;labelBackgroundColor=default;fontSize=15;startArrow=none;startFill=0;endArrow=classic;endFill=1;strokeWidth=2;" parent="A43F4s2ZnalGoexAEKTJ-4" source="LDm_sBTLsoFuQMDqbDht-15" target="IbKYtC_3RCh5xxz1OneK-112" edge="1">
          <mxGeometry relative="1" as="geometry" />
        </mxCell>
        <mxCell id="LDm_sBTLsoFuQMDqbDht-15" value="Atualização BD PORVID" style="points=[[0.25,0,0],[0.5,0,0],[0.75,0,0],[1,0.25,0],[1,0.5,0],[1,0.75,0],[0.75,1,0],[0.5,1,0],[0.25,1,0],[0,0.75,0],[0,0.5,0],[0,0.25,0]];shape=mxgraph.bpmn.task;whiteSpace=wrap;rectStyle=rounded;size=10;taskMarker=abstract;rounded=0;shadow=0;glass=0;sketch=0;fontSize=15;align=center;verticalAlign=middle;html=1;" parent="A43F4s2ZnalGoexAEKTJ-4" vertex="1">
          <mxGeometry x="390" y="120" width="150" height="80" as="geometry" />
        </mxCell>
        <mxCell id="A43F4s2ZnalGoexAEKTJ-13" style="edgeStyle=orthogonalEdgeStyle;rounded=0;orthogonalLoop=1;jettySize=auto;html=1;fontSize=15;endArrow=none;endFill=0;strokeWidth=2;dashed=1;startArrow=open;startFill=0;" parent="A43F4s2ZnalGoexAEKTJ-4" source="A43F4s2ZnalGoexAEKTJ-14" target="LDm_sBTLsoFuQMDqbDht-15" edge="1">
          <mxGeometry relative="1" as="geometry">
            <mxPoint x="1426" y="120" as="targetPoint" />
            <Array as="points" />
          </mxGeometry>
        </mxCell>
        <mxCell id="IbKYtC_3RCh5xxz1OneK-169" style="edgeStyle=orthogonalEdgeStyle;rounded=0;jumpStyle=arc;orthogonalLoop=1;jettySize=auto;html=1;labelBackgroundColor=default;fontSize=15;startArrow=none;startFill=0;endArrow=open;endFill=0;strokeWidth=2;dashed=1;" parent="A43F4s2ZnalGoexAEKTJ-4" source="A43F4s2ZnalGoexAEKTJ-14" target="7a99WiWWtlT3RzwQKHeO-6" edge="1">
          <mxGeometry relative="1" as="geometry">
            <mxPoint x="926" y="120" as="targetPoint" />
          </mxGeometry>
        </mxCell>
        <mxCell id="A43F4s2ZnalGoexAEKTJ-14" value="BD PORVID" style="shape=datastore;labelPosition=center;verticalLabelPosition=top;align=center;verticalAlign=bottom;rounded=0;shadow=0;glass=0;sketch=0;fontSize=15;html=1;" parent="A43F4s2ZnalGoexAEKTJ-4" vertex="1">
          <mxGeometry x="445" y="22" width="40" height="50" as="geometry" />
        </mxCell>
        <mxCell id="A43F4s2ZnalGoexAEKTJ-20" value="" style="points=[[0.25,0.25,0],[0.5,0,0],[0.75,0.25,0],[1,0.5,0],[0.75,0.75,0],[0.5,1,0],[0.25,0.75,0],[0,0.5,0]];shape=mxgraph.bpmn.gateway2;html=1;verticalLabelPosition=bottom;labelBackgroundColor=#ffffff;verticalAlign=top;align=center;perimeter=rhombusPerimeter;outlineConnect=0;outline=none;symbol=none;gwType=exclusive;fontSize=15;strokeWidth=2;" parent="A43F4s2ZnalGoexAEKTJ-4" vertex="1">
          <mxGeometry x="1040" y="135" width="50" height="50" as="geometry" />
        </mxCell>
        <mxCell id="A43F4s2ZnalGoexAEKTJ-17" value="Processo VITIS" style="edgeStyle=orthogonalEdgeStyle;rounded=0;orthogonalLoop=1;jettySize=auto;html=1;fontSize=15;startArrow=none;startFill=0;endArrow=classic;endFill=1;strokeWidth=2;" parent="A43F4s2ZnalGoexAEKTJ-4" source="A43F4s2ZnalGoexAEKTJ-20" target="IbKYtC_3RCh5xxz1OneK-194" edge="1">
          <mxGeometry x="-0.4483" relative="1" as="geometry">
            <mxPoint x="1430" y="160" as="targetPoint" />
            <mxPoint as="offset" />
          </mxGeometry>
        </mxCell>
        <mxCell id="A43F4s2ZnalGoexAEKTJ-18" style="edgeStyle=orthogonalEdgeStyle;rounded=0;orthogonalLoop=1;jettySize=auto;html=1;fontSize=15;startArrow=none;startFill=0;endArrow=classic;endFill=1;strokeWidth=2;" parent="A43F4s2ZnalGoexAEKTJ-4" source="A43F4s2ZnalGoexAEKTJ-20" target="LDm_sBTLsoFuQMDqbDht-23" edge="1">
          <mxGeometry relative="1" as="geometry">
            <Array as="points">
              <mxPoint x="1080" y="240" />
            </Array>
            <mxPoint x="1350" y="255" as="targetPoint" />
          </mxGeometry>
        </mxCell>
        <mxCell id="A43F4s2ZnalGoexAEKTJ-19" value="Não processo VITIS" style="edgeLabel;html=1;align=center;verticalAlign=middle;resizable=0;points=[];fontSize=15;" parent="A43F4s2ZnalGoexAEKTJ-18" vertex="1" connectable="0">
          <mxGeometry x="-0.0973" y="-1" relative="1" as="geometry">
            <mxPoint x="14" y="-6" as="offset" />
          </mxGeometry>
        </mxCell>
        <mxCell id="LDm_sBTLsoFuQMDqbDht-26" style="edgeStyle=orthogonalEdgeStyle;rounded=0;orthogonalLoop=1;jettySize=auto;html=1;startArrow=none;startFill=0;endArrow=classic;endFill=1;strokeWidth=2;" parent="A43F4s2ZnalGoexAEKTJ-4" source="7a99WiWWtlT3RzwQKHeO-8" target="A43F4s2ZnalGoexAEKTJ-28" edge="1">
          <mxGeometry relative="1" as="geometry">
            <mxPoint x="1983.999999999999" y="160.00000000000045" as="targetPoint" />
            <mxPoint x="1954" y="160" as="sourcePoint" />
          </mxGeometry>
        </mxCell>
        <mxCell id="A43F4s2ZnalGoexAEKTJ-21" style="edgeStyle=orthogonalEdgeStyle;rounded=0;orthogonalLoop=1;jettySize=auto;html=1;fontSize=15;startArrow=none;startFill=0;endArrow=classic;endFill=1;strokeWidth=2;" parent="A43F4s2ZnalGoexAEKTJ-4" source="7a99WiWWtlT3RzwQKHeO-7" target="7a99WiWWtlT3RzwQKHeO-8" edge="1">
          <mxGeometry relative="1" as="geometry">
            <mxPoint x="1740" y="160" as="sourcePoint" />
            <mxPoint x="1784" y="160" as="targetPoint" />
          </mxGeometry>
        </mxCell>
        <mxCell id="A43F4s2ZnalGoexAEKTJ-26" style="edgeStyle=orthogonalEdgeStyle;rounded=0;orthogonalLoop=1;jettySize=auto;html=1;dashed=1;fontSize=15;startArrow=none;startFill=0;endArrow=open;endFill=0;strokeWidth=2;" parent="A43F4s2ZnalGoexAEKTJ-4" source="A43F4s2ZnalGoexAEKTJ-27" target="7a99WiWWtlT3RzwQKHeO-7" edge="1">
          <mxGeometry relative="1" as="geometry">
            <mxPoint x="1655" y="120" as="targetPoint" />
          </mxGeometry>
        </mxCell>
        <mxCell id="A43F4s2ZnalGoexAEKTJ-27" value="BD PORVID" style="shape=datastore;labelPosition=center;verticalLabelPosition=top;align=center;verticalAlign=bottom;rounded=0;shadow=0;glass=0;sketch=0;fontSize=15;html=1;" parent="A43F4s2ZnalGoexAEKTJ-4" vertex="1">
          <mxGeometry x="1640" y="40" width="40" height="50" as="geometry" />
        </mxCell>
        <mxCell id="A43F4s2ZnalGoexAEKTJ-28" value="" style="points=[[0.145,0.145,0],[0.5,0,0],[0.855,0.145,0],[1,0.5,0],[0.855,0.855,0],[0.5,1,0],[0.145,0.855,0],[0,0.5,0]];shape=mxgraph.bpmn.event;html=1;verticalLabelPosition=bottom;labelBackgroundColor=#ffffff;verticalAlign=top;align=center;perimeter=ellipsePerimeter;outlineConnect=0;aspect=fixed;outline=end;symbol=terminate2;rounded=0;shadow=0;glass=0;sketch=0;fontSize=15;" parent="A43F4s2ZnalGoexAEKTJ-4" vertex="1">
          <mxGeometry x="2000" y="135" width="50" height="50" as="geometry" />
        </mxCell>
        <mxCell id="IbKYtC_3RCh5xxz1OneK-109" style="edgeStyle=orthogonalEdgeStyle;rounded=0;jumpStyle=arc;orthogonalLoop=1;jettySize=auto;html=1;labelBackgroundColor=default;fontSize=15;startArrow=none;startFill=0;endArrow=classic;endFill=1;strokeWidth=2;" parent="A43F4s2ZnalGoexAEKTJ-4" source="A43F4s2ZnalGoexAEKTJ-39" target="LDm_sBTLsoFuQMDqbDht-14" edge="1">
          <mxGeometry relative="1" as="geometry" />
        </mxCell>
        <mxCell id="A43F4s2ZnalGoexAEKTJ-39" value="" style="points=[[0.145,0.145,0],[0.5,0,0],[0.855,0.145,0],[1,0.5,0],[0.855,0.855,0],[0.5,1,0],[0.145,0.855,0],[0,0.5,0]];shape=mxgraph.bpmn.event;html=1;verticalLabelPosition=bottom;labelBackgroundColor=#ffffff;verticalAlign=top;align=center;perimeter=ellipsePerimeter;outlineConnect=0;aspect=fixed;outline=standard;symbol=general;" parent="A43F4s2ZnalGoexAEKTJ-4" vertex="1">
          <mxGeometry x="70" y="135" width="50" height="50" as="geometry" />
        </mxCell>
        <mxCell id="IbKYtC_3RCh5xxz1OneK-113" style="edgeStyle=orthogonalEdgeStyle;rounded=0;jumpStyle=arc;orthogonalLoop=1;jettySize=auto;html=1;labelBackgroundColor=default;fontSize=15;startArrow=none;startFill=0;endArrow=classic;endFill=1;strokeWidth=2;" parent="A43F4s2ZnalGoexAEKTJ-4" source="LDm_sBTLsoFuQMDqbDht-14" target="LDm_sBTLsoFuQMDqbDht-15" edge="1">
          <mxGeometry relative="1" as="geometry">
            <mxPoint x="430" y="159.99999999999955" as="sourcePoint" />
          </mxGeometry>
        </mxCell>
        <mxCell id="LDm_sBTLsoFuQMDqbDht-14" value="Parcelas de interesse a prospetar" style="points=[[0.25,0,0],[0.5,0,0],[0.75,0,0],[1,0.25,0],[1,0.5,0],[1,0.75,0],[0.75,1,0],[0.5,1,0],[0.25,1,0],[0,0.75,0],[0,0.5,0],[0,0.25,0]];shape=mxgraph.bpmn.task;whiteSpace=wrap;rectStyle=rounded;size=10;taskMarker=abstract;isLoopMultiParallel=1;fontSize=15;strokeWidth=2;" parent="A43F4s2ZnalGoexAEKTJ-4" vertex="1">
          <mxGeometry x="180" y="120" width="150" height="80" as="geometry" />
        </mxCell>
        <mxCell id="IbKYtC_3RCh5xxz1OneK-195" style="edgeStyle=orthogonalEdgeStyle;rounded=0;jumpStyle=arc;orthogonalLoop=1;jettySize=auto;html=1;labelBackgroundColor=default;fontSize=15;startArrow=none;startFill=0;endArrow=open;endFill=0;strokeWidth=2;" parent="A43F4s2ZnalGoexAEKTJ-4" source="LDm_sBTLsoFuQMDqbDht-23" target="IbKYtC_3RCh5xxz1OneK-194" edge="1">
          <mxGeometry relative="1" as="geometry">
            <Array as="points">
              <mxPoint x="1320" y="240" />
            </Array>
          </mxGeometry>
        </mxCell>
        <mxCell id="LDm_sBTLsoFuQMDqbDht-23" value="Processos VITIS &lt;br&gt;terminados" style="points=[[0.145,0.145,0],[0.5,0,0],[0.855,0.145,0],[1,0.5,0],[0.855,0.855,0],[0.5,1,0],[0.145,0.855,0],[0,0.5,0]];shape=mxgraph.bpmn.event;html=1;verticalLabelPosition=bottom;labelBackgroundColor=#ffffff;verticalAlign=top;align=center;perimeter=ellipsePerimeter;outlineConnect=0;aspect=fixed;outline=standard;symbol=conditional;fillColor=none;" parent="A43F4s2ZnalGoexAEKTJ-4" vertex="1">
          <mxGeometry x="1240" y="220" width="50" height="50" as="geometry" />
        </mxCell>
        <mxCell id="IbKYtC_3RCh5xxz1OneK-115" value="Parcela pertence à&lt;br&gt;região demarcada do Douro" style="edgeStyle=orthogonalEdgeStyle;rounded=0;jumpStyle=arc;orthogonalLoop=1;jettySize=auto;html=1;labelBackgroundColor=default;fontSize=15;startArrow=none;startFill=0;endArrow=classic;endFill=1;strokeWidth=2;" parent="A43F4s2ZnalGoexAEKTJ-4" source="IbKYtC_3RCh5xxz1OneK-112" target="7a99WiWWtlT3RzwQKHeO-6" edge="1">
          <mxGeometry x="-0.0714" relative="1" as="geometry">
            <mxPoint x="866" y="160" as="targetPoint" />
            <mxPoint x="-1" as="offset" />
          </mxGeometry>
        </mxCell>
        <mxCell id="IbKYtC_3RCh5xxz1OneK-118" style="edgeStyle=orthogonalEdgeStyle;rounded=0;jumpStyle=arc;orthogonalLoop=1;jettySize=auto;html=1;labelBackgroundColor=default;fontSize=15;startArrow=none;startFill=0;endArrow=classic;endFill=1;strokeWidth=2;" parent="A43F4s2ZnalGoexAEKTJ-4" source="IbKYtC_3RCh5xxz1OneK-112" target="A43F4s2ZnalGoexAEKTJ-20" edge="1">
          <mxGeometry relative="1" as="geometry">
            <mxPoint x="1030" y="240" as="targetPoint" />
            <Array as="points">
              <mxPoint x="595" y="240" />
              <mxPoint x="1050" y="240" />
            </Array>
          </mxGeometry>
        </mxCell>
        <mxCell id="IbKYtC_3RCh5xxz1OneK-119" value="&lt;span style=&quot;background-color: rgb(248 , 249 , 250)&quot;&gt;Parcela não pertence à&lt;/span&gt;&lt;br style=&quot;background-color: rgb(248 , 249 , 250)&quot;&gt;&lt;span style=&quot;background-color: rgb(248 , 249 , 250)&quot;&gt;região demarcada do Douro&lt;/span&gt;" style="edgeLabel;html=1;align=center;verticalAlign=middle;resizable=0;points=[];fontSize=15;" parent="IbKYtC_3RCh5xxz1OneK-118" vertex="1" connectable="0">
          <mxGeometry x="0.1344" y="2" relative="1" as="geometry">
            <mxPoint x="-142" as="offset" />
          </mxGeometry>
        </mxCell>
        <mxCell id="IbKYtC_3RCh5xxz1OneK-112" value="" style="points=[[0.25,0.25,0],[0.5,0,0],[0.75,0.25,0],[1,0.5,0],[0.75,0.75,0],[0.5,1,0],[0.25,0.75,0],[0,0.5,0]];shape=mxgraph.bpmn.gateway2;html=1;verticalLabelPosition=bottom;labelBackgroundColor=#ffffff;verticalAlign=top;align=center;perimeter=rhombusPerimeter;outlineConnect=0;outline=none;symbol=none;gwType=exclusive;fontSize=15;strokeWidth=2;" parent="A43F4s2ZnalGoexAEKTJ-4" vertex="1">
          <mxGeometry x="570" y="135" width="50" height="50" as="geometry" />
        </mxCell>
        <mxCell id="IbKYtC_3RCh5xxz1OneK-172" style="edgeStyle=orthogonalEdgeStyle;rounded=0;jumpStyle=arc;orthogonalLoop=1;jettySize=auto;html=1;labelBackgroundColor=default;fontSize=15;startArrow=none;startFill=0;endArrow=classic;endFill=1;strokeWidth=2;" parent="A43F4s2ZnalGoexAEKTJ-4" source="7a99WiWWtlT3RzwQKHeO-6" target="A43F4s2ZnalGoexAEKTJ-20" edge="1">
          <mxGeometry relative="1" as="geometry">
            <mxPoint x="986" y="160" as="sourcePoint" />
          </mxGeometry>
        </mxCell>
        <mxCell id="IbKYtC_3RCh5xxz1OneK-196" style="edgeStyle=orthogonalEdgeStyle;rounded=0;jumpStyle=arc;orthogonalLoop=1;jettySize=auto;html=1;labelBackgroundColor=default;fontSize=15;startArrow=none;startFill=0;endArrow=open;endFill=0;strokeWidth=2;" parent="A43F4s2ZnalGoexAEKTJ-4" source="IbKYtC_3RCh5xxz1OneK-194" target="7a99WiWWtlT3RzwQKHeO-7" edge="1">
          <mxGeometry relative="1" as="geometry">
            <mxPoint x="1570" y="160" as="targetPoint" />
          </mxGeometry>
        </mxCell>
        <mxCell id="IbKYtC_3RCh5xxz1OneK-197" value="Candidatura financiada" style="edgeLabel;html=1;align=center;verticalAlign=middle;resizable=0;points=[];fontSize=15;" parent="IbKYtC_3RCh5xxz1OneK-196" vertex="1" connectable="0">
          <mxGeometry x="0.2692" relative="1" as="geometry">
            <mxPoint x="-43" as="offset" />
          </mxGeometry>
        </mxCell>
        <mxCell id="IbKYtC_3RCh5xxz1OneK-199" style="edgeStyle=orthogonalEdgeStyle;rounded=0;jumpStyle=arc;orthogonalLoop=1;jettySize=auto;html=1;labelBackgroundColor=default;fontSize=15;startArrow=none;startFill=0;endArrow=open;endFill=0;strokeWidth=2;" parent="A43F4s2ZnalGoexAEKTJ-4" source="IbKYtC_3RCh5xxz1OneK-194" target="IbKYtC_3RCh5xxz1OneK-198" edge="1">
          <mxGeometry relative="1" as="geometry">
            <Array as="points">
              <mxPoint x="1350" y="240" />
            </Array>
          </mxGeometry>
        </mxCell>
        <mxCell id="IbKYtC_3RCh5xxz1OneK-200" value="Candidatura &lt;br&gt;aprovada" style="edgeLabel;html=1;align=center;verticalAlign=middle;resizable=0;points=[];fontSize=15;" parent="IbKYtC_3RCh5xxz1OneK-199" vertex="1" connectable="0">
          <mxGeometry x="0.0083" y="2" relative="1" as="geometry">
            <mxPoint as="offset" />
          </mxGeometry>
        </mxCell>
        <mxCell id="IbKYtC_3RCh5xxz1OneK-194" value="" style="points=[[0.25,0.25,0],[0.5,0,0],[0.75,0.25,0],[1,0.5,0],[0.75,0.75,0],[0.5,1,0],[0.25,0.75,0],[0,0.5,0]];shape=mxgraph.bpmn.gateway2;html=1;verticalLabelPosition=bottom;labelBackgroundColor=#ffffff;verticalAlign=top;align=center;perimeter=rhombusPerimeter;outlineConnect=0;outline=none;symbol=none;gwType=exclusive;fontSize=15;strokeWidth=2;" parent="A43F4s2ZnalGoexAEKTJ-4" vertex="1">
          <mxGeometry x="1310" y="135" width="50" height="50" as="geometry" />
        </mxCell>
        <mxCell id="IbKYtC_3RCh5xxz1OneK-201" style="edgeStyle=orthogonalEdgeStyle;rounded=0;jumpStyle=arc;orthogonalLoop=1;jettySize=auto;html=1;labelBackgroundColor=default;fontSize=15;startArrow=none;startFill=0;endArrow=open;endFill=0;strokeWidth=2;" parent="A43F4s2ZnalGoexAEKTJ-4" source="IbKYtC_3RCh5xxz1OneK-198" target="7a99WiWWtlT3RzwQKHeO-7" edge="1">
          <mxGeometry relative="1" as="geometry">
            <mxPoint x="1655" y="200" as="targetPoint" />
          </mxGeometry>
        </mxCell>
        <mxCell id="IbKYtC_3RCh5xxz1OneK-198" value="Candidaturas financiadas &lt;br&gt;terminadas" style="points=[[0.145,0.145,0],[0.5,0,0],[0.855,0.145,0],[1,0.5,0],[0.855,0.855,0],[0.5,1,0],[0.145,0.855,0],[0,0.5,0]];shape=mxgraph.bpmn.event;html=1;verticalLabelPosition=bottom;labelBackgroundColor=#ffffff;verticalAlign=top;align=center;perimeter=ellipsePerimeter;outlineConnect=0;aspect=fixed;outline=standard;symbol=conditional;fillColor=none;" parent="A43F4s2ZnalGoexAEKTJ-4" vertex="1">
          <mxGeometry x="1494" y="210" width="50" height="50" as="geometry" />
        </mxCell>
        <mxCell id="7a99WiWWtlT3RzwQKHeO-6" value="&lt;span&gt;Associar informação IVDP&lt;/span&gt;" style="points=[[0.25,0,0],[0.5,0,0],[0.75,0,0],[1,0.25,0],[1,0.5,0],[1,0.75,0],[0.75,1,0],[0.5,1,0],[0.25,1,0],[0,0.75,0],[0,0.5,0],[0,0.25,0]];shape=mxgraph.bpmn.task;whiteSpace=wrap;rectStyle=rounded;size=10;taskMarker=user;fontSize=15;html=1;" parent="A43F4s2ZnalGoexAEKTJ-4" vertex="1">
          <mxGeometry x="870" y="120" width="120" height="80" as="geometry" />
        </mxCell>
        <mxCell id="7a99WiWWtlT3RzwQKHeO-7" value="Identificação de vinhas velhas&amp;nbsp;geograficamente próximas" style="points=[[0.25,0,0],[0.5,0,0],[0.75,0,0],[1,0.25,0],[1,0.5,0],[1,0.75,0],[0.75,1,0],[0.5,1,0],[0.25,1,0],[0,0.75,0],[0,0.5,0],[0,0.25,0]];shape=mxgraph.bpmn.task;whiteSpace=wrap;rectStyle=rounded;size=10;taskMarker=user;fontSize=15;html=1;" parent="A43F4s2ZnalGoexAEKTJ-4" vertex="1">
          <mxGeometry x="1570" y="120" width="180" height="80" as="geometry" />
        </mxCell>
        <mxCell id="7a99WiWWtlT3RzwQKHeO-8" value="Agrupamento de vinhas" style="points=[[0.25,0,0],[0.5,0,0],[0.75,0,0],[1,0.25,0],[1,0.5,0],[1,0.75,0],[0.75,1,0],[0.5,1,0],[0.25,1,0],[0,0.75,0],[0,0.5,0],[0,0.25,0]];shape=mxgraph.bpmn.task;whiteSpace=wrap;rectStyle=rounded;size=10;taskMarker=user;fontSize=15;html=1;" parent="A43F4s2ZnalGoexAEKTJ-4" vertex="1">
          <mxGeometry x="1780" y="120" width="180" height="80" as="geometry" />
        </mxCell>
        <mxCell id="A43F4s2ZnalGoexAEKTJ-5" value="&lt;span style=&quot;font-size: 15px&quot;&gt;IVDP&lt;/span&gt;" style="swimlane;html=1;startSize=20;horizontal=0;" parent="A43F4s2ZnalGoexAEKTJ-3" vertex="1">
          <mxGeometry y="340" width="2080" height="220" as="geometry" />
        </mxCell>
        <mxCell id="IbKYtC_3RCh5xxz1OneK-167" style="edgeStyle=orthogonalEdgeStyle;rounded=0;jumpStyle=arc;orthogonalLoop=1;jettySize=auto;html=1;labelBackgroundColor=default;fontSize=15;startArrow=none;startFill=0;endArrow=classic;endFill=1;strokeWidth=2;" parent="A43F4s2ZnalGoexAEKTJ-5" source="IbKYtC_3RCh5xxz1OneK-166" target="LDm_sBTLsoFuQMDqbDht-8" edge="1">
          <mxGeometry relative="1" as="geometry" />
        </mxCell>
        <mxCell id="IbKYtC_3RCh5xxz1OneK-166" value="" style="points=[[0.145,0.145,0],[0.5,0,0],[0.855,0.145,0],[1,0.5,0],[0.855,0.855,0],[0.5,1,0],[0.145,0.855,0],[0,0.5,0]];shape=mxgraph.bpmn.event;html=1;verticalLabelPosition=bottom;labelBackgroundColor=#ffffff;verticalAlign=top;align=center;perimeter=ellipsePerimeter;outlineConnect=0;aspect=fixed;outline=standard;symbol=general;" parent="A43F4s2ZnalGoexAEKTJ-5" vertex="1">
          <mxGeometry x="70" y="35" width="50" height="50" as="geometry" />
        </mxCell>
        <mxCell id="A43F4s2ZnalGoexAEKTJ-34" style="edgeStyle=orthogonalEdgeStyle;rounded=0;orthogonalLoop=1;jettySize=auto;html=1;fontSize=15;startArrow=none;startFill=0;endArrow=classic;endFill=1;strokeWidth=2;dashed=1;" parent="A43F4s2ZnalGoexAEKTJ-5" source="A43F4s2ZnalGoexAEKTJ-35" target="A43F4s2ZnalGoexAEKTJ-33" edge="1">
          <mxGeometry relative="1" as="geometry" />
        </mxCell>
        <mxCell id="A43F4s2ZnalGoexAEKTJ-35" value="BD IVDP" style="shape=datastore;labelPosition=center;verticalLabelPosition=bottom;align=center;verticalAlign=top;rounded=0;shadow=0;glass=0;sketch=0;fontSize=15;html=1;" parent="A43F4s2ZnalGoexAEKTJ-5" vertex="1">
          <mxGeometry x="235" y="130" width="40" height="50" as="geometry" />
        </mxCell>
        <mxCell id="A43F4s2ZnalGoexAEKTJ-36" value="Notificar PORVID" style="points=[[0.25,0,0],[0.5,0,0],[0.75,0,0],[1,0.25,0],[1,0.5,0],[1,0.75,0],[0.75,1,0],[0.5,1,0],[0.25,1,0],[0,0.75,0],[0,0.5,0],[0,0.25,0]];shape=mxgraph.bpmn.task;whiteSpace=wrap;rectStyle=rounded;size=10;taskMarker=send;rounded=0;shadow=0;glass=0;sketch=0;fontSize=15;align=center;verticalAlign=middle;html=1;" parent="A43F4s2ZnalGoexAEKTJ-5" vertex="1">
          <mxGeometry x="400" y="20" width="130" height="80" as="geometry" />
        </mxCell>
        <mxCell id="A43F4s2ZnalGoexAEKTJ-32" style="edgeStyle=orthogonalEdgeStyle;rounded=0;orthogonalLoop=1;jettySize=auto;html=1;fontSize=15;startArrow=none;startFill=0;endArrow=classic;endFill=1;strokeWidth=2;" parent="A43F4s2ZnalGoexAEKTJ-5" source="A43F4s2ZnalGoexAEKTJ-33" target="A43F4s2ZnalGoexAEKTJ-36" edge="1">
          <mxGeometry relative="1" as="geometry" />
        </mxCell>
        <mxCell id="LDm_sBTLsoFuQMDqbDht-9" value="" style="group" parent="A43F4s2ZnalGoexAEKTJ-5" vertex="1" connectable="0">
          <mxGeometry x="180" y="20" width="150" height="80" as="geometry" />
        </mxCell>
        <mxCell id="A43F4s2ZnalGoexAEKTJ-33" value="Preparação de informação sobre parcelas verificadas" style="points=[[0.25,0,0],[0.5,0,0],[0.75,0,0],[1,0.25,0],[1,0.5,0],[1,0.75,0],[0.75,1,0],[0.5,1,0],[0.25,1,0],[0,0.75,0],[0,0.5,0],[0,0.25,0]];shape=mxgraph.bpmn.task;whiteSpace=wrap;rectStyle=rounded;size=10;taskMarker=service;rounded=0;shadow=0;glass=0;sketch=0;fontSize=15;" parent="LDm_sBTLsoFuQMDqbDht-9" vertex="1">
          <mxGeometry width="150" height="80" as="geometry" />
        </mxCell>
        <mxCell id="LDm_sBTLsoFuQMDqbDht-8" value="" style="points=[[0.25,0,0],[0.5,0,0],[0.75,0,0],[1,0.25,0],[1,0.5,0],[1,0.75,0],[0.75,1,0],[0.5,1,0],[0.25,1,0],[0,0.75,0],[0,0.5,0],[0,0.25,0]];shape=mxgraph.bpmn.task;whiteSpace=wrap;rectStyle=rounded;size=10;taskMarker=abstract;isLoopStandard=1;fillColor=none;" parent="LDm_sBTLsoFuQMDqbDht-9" vertex="1">
          <mxGeometry width="150" height="80" as="geometry" />
        </mxCell>
        <mxCell id="IbKYtC_3RCh5xxz1OneK-5" value="&lt;span style=&quot;font-size: 15px ; background-color: rgb(255 , 255 , 255)&quot;&gt;PN2.&amp;nbsp;&lt;/span&gt;&lt;span style=&quot;font-size: 15px&quot;&gt;Decisão sobre parcelas a prospetar&lt;/span&gt;" style="swimlane;html=1;childLayout=stackLayout;resizeParent=1;resizeParentMax=0;horizontal=1;startSize=20;horizontalStack=0;strokeWidth=2;" parent="1" vertex="1">
          <mxGeometry x="40" y="1740" width="1680" height="660" as="geometry">
            <mxRectangle x="40" y="1730" width="250" height="20" as="alternateBounds" />
          </mxGeometry>
        </mxCell>
        <mxCell id="IbKYtC_3RCh5xxz1OneK-152" style="edgeStyle=orthogonalEdgeStyle;rounded=0;jumpStyle=arc;orthogonalLoop=1;jettySize=auto;html=1;labelBackgroundColor=default;fontSize=15;startArrow=oval;startFill=0;endArrow=classic;endFill=1;strokeWidth=2;dashed=1;" parent="IbKYtC_3RCh5xxz1OneK-5" source="IbKYtC_3RCh5xxz1OneK-67" target="IbKYtC_3RCh5xxz1OneK-151" edge="1">
          <mxGeometry relative="1" as="geometry">
            <Array as="points">
              <mxPoint x="220" y="540" />
            </Array>
          </mxGeometry>
        </mxCell>
        <mxCell id="IbKYtC_3RCh5xxz1OneK-6" value="&lt;span style=&quot;font-size: 15px&quot;&gt;PORVID&lt;/span&gt;" style="swimlane;html=1;startSize=20;horizontal=0;" parent="IbKYtC_3RCh5xxz1OneK-5" vertex="1">
          <mxGeometry y="20" width="1680" height="450" as="geometry" />
        </mxCell>
        <mxCell id="al4PJ4pm5zgEQlfIhQZX-102" value="" style="rounded=0;whiteSpace=wrap;html=1;labelBackgroundColor=none;fontSize=20;strokeWidth=2;fillColor=#dae8fc;gradientDirection=south;dashed=1;strokeColor=#6c8ebf;" parent="IbKYtC_3RCh5xxz1OneK-6" vertex="1">
          <mxGeometry x="460" y="10" width="1120" height="430" as="geometry" />
        </mxCell>
        <mxCell id="IbKYtC_3RCh5xxz1OneK-19" value="" style="points=[[0.145,0.145,0],[0.5,0,0],[0.855,0.145,0],[1,0.5,0],[0.855,0.855,0],[0.5,1,0],[0.145,0.855,0],[0,0.5,0]];shape=mxgraph.bpmn.event;html=1;verticalLabelPosition=bottom;labelBackgroundColor=#ffffff;verticalAlign=top;align=center;perimeter=ellipsePerimeter;outlineConnect=0;aspect=fixed;outline=end;symbol=terminate2;rounded=0;shadow=0;glass=0;sketch=0;fontSize=15;" parent="IbKYtC_3RCh5xxz1OneK-6" vertex="1">
          <mxGeometry x="1610" y="145" width="50" height="50" as="geometry" />
        </mxCell>
        <mxCell id="IbKYtC_3RCh5xxz1OneK-68" style="edgeStyle=orthogonalEdgeStyle;rounded=0;orthogonalLoop=1;jettySize=auto;html=1;fontSize=15;endArrow=classic;endFill=1;strokeWidth=2;" parent="IbKYtC_3RCh5xxz1OneK-6" source="IbKYtC_3RCh5xxz1OneK-22" target="IbKYtC_3RCh5xxz1OneK-67" edge="1">
          <mxGeometry relative="1" as="geometry" />
        </mxCell>
        <mxCell id="IbKYtC_3RCh5xxz1OneK-22" value="" style="points=[[0.145,0.145,0],[0.5,0,0],[0.855,0.145,0],[1,0.5,0],[0.855,0.855,0],[0.5,1,0],[0.145,0.855,0],[0,0.5,0]];shape=mxgraph.bpmn.event;html=1;verticalLabelPosition=bottom;labelBackgroundColor=#ffffff;verticalAlign=top;align=center;perimeter=ellipsePerimeter;outlineConnect=0;aspect=fixed;outline=standard;symbol=general;" parent="IbKYtC_3RCh5xxz1OneK-6" vertex="1">
          <mxGeometry x="59" y="139" width="50" height="50" as="geometry" />
        </mxCell>
        <mxCell id="IbKYtC_3RCh5xxz1OneK-53" style="edgeStyle=orthogonalEdgeStyle;rounded=0;orthogonalLoop=1;jettySize=auto;html=1;endArrow=classic;endFill=1;strokeWidth=2;" parent="IbKYtC_3RCh5xxz1OneK-6" source="IbKYtC_3RCh5xxz1OneK-47" target="7a99WiWWtlT3RzwQKHeO-9" edge="1">
          <mxGeometry relative="1" as="geometry">
            <mxPoint x="1320" y="166.5" as="targetPoint" />
          </mxGeometry>
        </mxCell>
        <mxCell id="IbKYtC_3RCh5xxz1OneK-54" value="&lt;font style=&quot;font-size: 15px&quot;&gt;Ano de plantação &amp;lt;= 1980&lt;/font&gt;" style="edgeLabel;html=1;align=center;verticalAlign=middle;resizable=0;points=[];" parent="IbKYtC_3RCh5xxz1OneK-53" vertex="1" connectable="0">
          <mxGeometry x="-0.4295" y="2" relative="1" as="geometry">
            <mxPoint x="37" y="2" as="offset" />
          </mxGeometry>
        </mxCell>
        <mxCell id="IbKYtC_3RCh5xxz1OneK-57" style="edgeStyle=orthogonalEdgeStyle;rounded=0;orthogonalLoop=1;jettySize=auto;html=1;endArrow=classic;endFill=1;strokeWidth=2;" parent="IbKYtC_3RCh5xxz1OneK-6" source="IbKYtC_3RCh5xxz1OneK-47" target="IbKYtC_3RCh5xxz1OneK-60" edge="1">
          <mxGeometry relative="1" as="geometry">
            <mxPoint x="1040" y="261.5" as="targetPoint" />
            <Array as="points">
              <mxPoint x="755" y="287.5" />
            </Array>
          </mxGeometry>
        </mxCell>
        <mxCell id="IbKYtC_3RCh5xxz1OneK-58" value="&lt;span style=&quot;font-size: 15px&quot;&gt;Ano de plantação &amp;gt; 1980&lt;/span&gt;" style="edgeLabel;html=1;align=center;verticalAlign=middle;resizable=0;points=[];" parent="IbKYtC_3RCh5xxz1OneK-57" vertex="1" connectable="0">
          <mxGeometry x="0.0552" y="-2" relative="1" as="geometry">
            <mxPoint x="30" y="-2" as="offset" />
          </mxGeometry>
        </mxCell>
        <mxCell id="IbKYtC_3RCh5xxz1OneK-47" value="" style="points=[[0.25,0.25,0],[0.5,0,0],[0.75,0.25,0],[1,0.5,0],[0.75,0.75,0],[0.5,1,0],[0.25,0.75,0],[0,0.5,0]];shape=mxgraph.bpmn.gateway2;html=1;verticalLabelPosition=bottom;labelBackgroundColor=#ffffff;verticalAlign=top;align=center;perimeter=rhombusPerimeter;outlineConnect=0;outline=none;symbol=none;gwType=exclusive;rounded=0;shadow=0;glass=0;sketch=0;fontSize=15;" parent="IbKYtC_3RCh5xxz1OneK-6" vertex="1">
          <mxGeometry x="730" y="141.5" width="50" height="50" as="geometry" />
        </mxCell>
        <mxCell id="IbKYtC_3RCh5xxz1OneK-69" style="edgeStyle=orthogonalEdgeStyle;rounded=0;orthogonalLoop=1;jettySize=auto;html=1;fontSize=15;endArrow=open;endFill=0;strokeWidth=2;dashed=1;" parent="IbKYtC_3RCh5xxz1OneK-6" source="IbKYtC_3RCh5xxz1OneK-48" target="IbKYtC_3RCh5xxz1OneK-67" edge="1">
          <mxGeometry relative="1" as="geometry" />
        </mxCell>
        <mxCell id="IbKYtC_3RCh5xxz1OneK-48" value="BD PORVID" style="shape=datastore;labelPosition=center;verticalLabelPosition=top;align=center;verticalAlign=bottom;rounded=0;shadow=0;glass=0;sketch=0;fontSize=15;html=1;" parent="IbKYtC_3RCh5xxz1OneK-6" vertex="1">
          <mxGeometry x="200" y="40" width="40" height="50" as="geometry" />
        </mxCell>
        <mxCell id="IbKYtC_3RCh5xxz1OneK-71" style="edgeStyle=orthogonalEdgeStyle;rounded=0;orthogonalLoop=1;jettySize=auto;html=1;fontSize=15;endArrow=classic;endFill=1;strokeWidth=2;" parent="IbKYtC_3RCh5xxz1OneK-6" source="7a99WiWWtlT3RzwQKHeO-9" target="IbKYtC_3RCh5xxz1OneK-19" edge="1">
          <mxGeometry relative="1" as="geometry">
            <mxPoint x="1440" y="166.5" as="sourcePoint" />
          </mxGeometry>
        </mxCell>
        <mxCell id="IbKYtC_3RCh5xxz1OneK-78" style="edgeStyle=orthogonalEdgeStyle;rounded=0;orthogonalLoop=1;jettySize=auto;html=1;fontSize=15;endArrow=open;endFill=0;strokeWidth=2;dashed=1;" parent="IbKYtC_3RCh5xxz1OneK-6" source="7a99WiWWtlT3RzwQKHeO-9" target="IbKYtC_3RCh5xxz1OneK-77" edge="1">
          <mxGeometry relative="1" as="geometry">
            <Array as="points">
              <mxPoint x="1380" y="68" />
            </Array>
            <mxPoint x="1380.034482758621" y="126.5" as="sourcePoint" />
          </mxGeometry>
        </mxCell>
        <mxCell id="IbKYtC_3RCh5xxz1OneK-63" style="edgeStyle=orthogonalEdgeStyle;rounded=0;orthogonalLoop=1;jettySize=auto;html=1;fontSize=15;endArrow=classic;endFill=1;strokeWidth=2;" parent="IbKYtC_3RCh5xxz1OneK-6" source="IbKYtC_3RCh5xxz1OneK-60" target="IbKYtC_3RCh5xxz1OneK-61" edge="1">
          <mxGeometry relative="1" as="geometry" />
        </mxCell>
        <mxCell id="IbKYtC_3RCh5xxz1OneK-60" value="Validação de castas" style="points=[[0.25,0,0],[0.5,0,0],[0.75,0,0],[1,0.25,0],[1,0.5,0],[1,0.75,0],[0.75,1,0],[0.5,1,0],[0.25,1,0],[0,0.75,0],[0,0.5,0],[0,0.25,0]];shape=mxgraph.bpmn.task;whiteSpace=wrap;rectStyle=rounded;size=10;taskMarker=user;fontSize=15;" parent="IbKYtC_3RCh5xxz1OneK-6" vertex="1">
          <mxGeometry x="1035" y="247.5" width="120" height="80" as="geometry" />
        </mxCell>
        <mxCell id="IbKYtC_3RCh5xxz1OneK-73" value="Casta com interesse&lt;br&gt;de prospeção" style="edgeStyle=orthogonalEdgeStyle;rounded=0;orthogonalLoop=1;jettySize=auto;html=1;fontSize=15;endArrow=classic;endFill=1;strokeWidth=2;" parent="IbKYtC_3RCh5xxz1OneK-6" source="IbKYtC_3RCh5xxz1OneK-61" target="7a99WiWWtlT3RzwQKHeO-9" edge="1">
          <mxGeometry relative="1" as="geometry">
            <Array as="points">
              <mxPoint x="1380" y="288" />
            </Array>
            <mxPoint x="1380.034482758621" y="206.5" as="targetPoint" />
          </mxGeometry>
        </mxCell>
        <mxCell id="IbKYtC_3RCh5xxz1OneK-61" value="" style="points=[[0.25,0.25,0],[0.5,0,0],[0.75,0.25,0],[1,0.5,0],[0.75,0.75,0],[0.5,1,0],[0.25,0.75,0],[0,0.5,0]];shape=mxgraph.bpmn.gateway2;html=1;verticalLabelPosition=bottom;labelBackgroundColor=#ffffff;verticalAlign=top;align=center;perimeter=rhombusPerimeter;outlineConnect=0;outline=none;symbol=none;gwType=exclusive;rounded=0;shadow=0;glass=0;sketch=0;fontSize=15;" parent="IbKYtC_3RCh5xxz1OneK-6" vertex="1">
          <mxGeometry x="1210" y="262.5" width="50" height="50" as="geometry" />
        </mxCell>
        <mxCell id="IbKYtC_3RCh5xxz1OneK-156" style="edgeStyle=orthogonalEdgeStyle;rounded=0;jumpStyle=arc;orthogonalLoop=1;jettySize=auto;html=1;labelBackgroundColor=default;fontSize=15;startArrow=none;startFill=0;endArrow=classic;endFill=1;strokeWidth=2;" parent="IbKYtC_3RCh5xxz1OneK-6" source="IbKYtC_3RCh5xxz1OneK-67" target="IbKYtC_3RCh5xxz1OneK-155" edge="1">
          <mxGeometry relative="1" as="geometry" />
        </mxCell>
        <mxCell id="IbKYtC_3RCh5xxz1OneK-67" value="Listagem de parcelas" style="points=[[0.25,0,0],[0.5,0,0],[0.75,0,0],[1,0.25,0],[1,0.5,0],[1,0.75,0],[0.75,1,0],[0.5,1,0],[0.25,1,0],[0,0.75,0],[0,0.5,0],[0,0.25,0]];shape=mxgraph.bpmn.task;whiteSpace=wrap;rectStyle=rounded;size=10;taskMarker=abstract;isLoopMultiParallel=1;fontSize=15;" parent="IbKYtC_3RCh5xxz1OneK-6" vertex="1">
          <mxGeometry x="160" y="124" width="120" height="80" as="geometry" />
        </mxCell>
        <mxCell id="IbKYtC_3RCh5xxz1OneK-76" style="edgeStyle=orthogonalEdgeStyle;rounded=0;orthogonalLoop=1;jettySize=auto;html=1;fontSize=15;endArrow=classic;endFill=1;strokeWidth=2;" parent="IbKYtC_3RCh5xxz1OneK-6" source="7a99WiWWtlT3RzwQKHeO-10" target="IbKYtC_3RCh5xxz1OneK-89" edge="1">
          <mxGeometry relative="1" as="geometry">
            <mxPoint x="1560" y="382.5" as="sourcePoint" />
            <mxPoint x="1610" y="382.5" as="targetPoint" />
          </mxGeometry>
        </mxCell>
        <mxCell id="IbKYtC_3RCh5xxz1OneK-77" value="BD PORVID" style="shape=datastore;labelPosition=center;verticalLabelPosition=top;align=center;verticalAlign=bottom;rounded=0;shadow=0;glass=0;sketch=0;fontSize=15;html=1;" parent="IbKYtC_3RCh5xxz1OneK-6" vertex="1">
          <mxGeometry x="1480" y="42.5" width="40" height="50" as="geometry" />
        </mxCell>
        <mxCell id="IbKYtC_3RCh5xxz1OneK-89" value="" style="points=[[0.145,0.145,0],[0.5,0,0],[0.855,0.145,0],[1,0.5,0],[0.855,0.855,0],[0.5,1,0],[0.145,0.855,0],[0,0.5,0]];shape=mxgraph.bpmn.event;html=1;verticalLabelPosition=bottom;labelBackgroundColor=#ffffff;verticalAlign=top;align=center;perimeter=ellipsePerimeter;outlineConnect=0;aspect=fixed;outline=boundInt;symbol=cancel;fontSize=15;strokeWidth=2;" parent="IbKYtC_3RCh5xxz1OneK-6" vertex="1">
          <mxGeometry x="1610" y="365" width="50" height="50" as="geometry" />
        </mxCell>
        <mxCell id="IbKYtC_3RCh5xxz1OneK-161" style="edgeStyle=orthogonalEdgeStyle;rounded=0;jumpStyle=arc;orthogonalLoop=1;jettySize=auto;html=1;labelBackgroundColor=default;fontSize=15;startArrow=none;startFill=0;endArrow=classic;endFill=1;strokeWidth=2;" parent="IbKYtC_3RCh5xxz1OneK-6" source="IbKYtC_3RCh5xxz1OneK-155" target="IbKYtC_3RCh5xxz1OneK-160" edge="1">
          <mxGeometry relative="1" as="geometry" />
        </mxCell>
        <mxCell id="IbKYtC_3RCh5xxz1OneK-155" value="Notificação DRAP" style="points=[[0.145,0.145,0],[0.5,0,0],[0.855,0.145,0],[1,0.5,0],[0.855,0.855,0],[0.5,1,0],[0.145,0.855,0],[0,0.5,0]];shape=mxgraph.bpmn.event;html=1;verticalLabelPosition=top;labelBackgroundColor=#ffffff;verticalAlign=bottom;align=center;perimeter=ellipsePerimeter;outlineConnect=0;aspect=fixed;outline=standard;symbol=message;fontSize=15;strokeWidth=2;labelPosition=center;" parent="IbKYtC_3RCh5xxz1OneK-6" vertex="1">
          <mxGeometry x="354" y="144" width="40" height="40" as="geometry" />
        </mxCell>
        <mxCell id="IbKYtC_3RCh5xxz1OneK-162" style="edgeStyle=orthogonalEdgeStyle;rounded=0;jumpStyle=arc;orthogonalLoop=1;jettySize=auto;html=1;labelBackgroundColor=default;fontSize=15;startArrow=none;startFill=0;endArrow=classic;endFill=1;strokeWidth=2;" parent="IbKYtC_3RCh5xxz1OneK-6" source="IbKYtC_3RCh5xxz1OneK-160" target="IbKYtC_3RCh5xxz1OneK-47" edge="1">
          <mxGeometry relative="1" as="geometry" />
        </mxCell>
        <mxCell id="IbKYtC_3RCh5xxz1OneK-163" value="Avaliação positiva DRAP" style="edgeLabel;html=1;align=center;verticalAlign=middle;resizable=0;points=[];fontSize=15;" parent="IbKYtC_3RCh5xxz1OneK-162" vertex="1" connectable="0">
          <mxGeometry x="-0.2961" relative="1" as="geometry">
            <mxPoint x="25" as="offset" />
          </mxGeometry>
        </mxCell>
        <mxCell id="IbKYtC_3RCh5xxz1OneK-160" value="" style="points=[[0.25,0.25,0],[0.5,0,0],[0.75,0.25,0],[1,0.5,0],[0.75,0.75,0],[0.5,1,0],[0.25,0.75,0],[0,0.5,0]];shape=mxgraph.bpmn.gateway2;html=1;verticalLabelPosition=bottom;labelBackgroundColor=#ffffff;verticalAlign=top;align=center;perimeter=rhombusPerimeter;outlineConnect=0;outline=none;symbol=none;gwType=exclusive;rounded=0;shadow=0;glass=0;sketch=0;fontSize=15;" parent="IbKYtC_3RCh5xxz1OneK-6" vertex="1">
          <mxGeometry x="470" y="139" width="50" height="50" as="geometry" />
        </mxCell>
        <mxCell id="IbKYtC_3RCh5xxz1OneK-79" style="edgeStyle=orthogonalEdgeStyle;rounded=0;orthogonalLoop=1;jettySize=auto;html=1;dashed=1;fontSize=15;endArrow=open;endFill=0;strokeWidth=2;jumpStyle=arc;" parent="IbKYtC_3RCh5xxz1OneK-6" source="7a99WiWWtlT3RzwQKHeO-10" target="IbKYtC_3RCh5xxz1OneK-77" edge="1">
          <mxGeometry relative="1" as="geometry">
            <mxPoint x="1500" y="350" as="sourcePoint" />
          </mxGeometry>
        </mxCell>
        <mxCell id="IbKYtC_3RCh5xxz1OneK-164" style="edgeStyle=orthogonalEdgeStyle;rounded=0;jumpStyle=arc;orthogonalLoop=1;jettySize=auto;html=1;labelBackgroundColor=default;fontSize=15;startArrow=none;startFill=0;endArrow=classic;endFill=1;strokeWidth=2;" parent="IbKYtC_3RCh5xxz1OneK-6" source="IbKYtC_3RCh5xxz1OneK-160" target="7a99WiWWtlT3RzwQKHeO-10" edge="1">
          <mxGeometry relative="1" as="geometry">
            <Array as="points">
              <mxPoint x="495" y="410" />
            </Array>
            <mxPoint x="1440" y="410" as="targetPoint" />
          </mxGeometry>
        </mxCell>
        <mxCell id="IbKYtC_3RCh5xxz1OneK-165" value="Avaliação negativa DRAP" style="edgeLabel;html=1;align=center;verticalAlign=middle;resizable=0;points=[];fontSize=15;" parent="IbKYtC_3RCh5xxz1OneK-164" vertex="1" connectable="0">
          <mxGeometry x="-0.0726" y="-1" relative="1" as="geometry">
            <mxPoint as="offset" />
          </mxGeometry>
        </mxCell>
        <mxCell id="IbKYtC_3RCh5xxz1OneK-74" style="edgeStyle=orthogonalEdgeStyle;rounded=0;orthogonalLoop=1;jettySize=auto;html=1;fontSize=15;endArrow=classic;endFill=1;strokeWidth=2;" parent="IbKYtC_3RCh5xxz1OneK-6" source="IbKYtC_3RCh5xxz1OneK-61" target="7a99WiWWtlT3RzwQKHeO-10" edge="1">
          <mxGeometry relative="1" as="geometry">
            <mxPoint x="1440" y="380" as="targetPoint" />
            <Array as="points">
              <mxPoint x="1235" y="380" />
            </Array>
          </mxGeometry>
        </mxCell>
        <mxCell id="IbKYtC_3RCh5xxz1OneK-75" value="Casta sem interesse&lt;br&gt;de prospeção" style="edgeLabel;html=1;align=center;verticalAlign=middle;resizable=0;points=[];fontSize=15;" parent="IbKYtC_3RCh5xxz1OneK-74" vertex="1" connectable="0">
          <mxGeometry x="0.1463" y="6" relative="1" as="geometry">
            <mxPoint y="6" as="offset" />
          </mxGeometry>
        </mxCell>
        <mxCell id="al4PJ4pm5zgEQlfIhQZX-101" value="1b" style="ellipse;whiteSpace=wrap;html=1;strokeWidth=2;fillWeight=2;hachureGap=8;fillColor=#3399FF;fillStyle=dashed;sketch=1;fontSize=20;fontColor=#000000;fontStyle=1;labelBackgroundColor=none;labelBorderColor=none;jiggle=1;" parent="IbKYtC_3RCh5xxz1OneK-6" vertex="1">
          <mxGeometry x="440" y="2.5" width="40" height="40" as="geometry" />
        </mxCell>
        <mxCell id="7a99WiWWtlT3RzwQKHeO-9" value="&lt;span&gt;Parcela com interesse de prospeção&lt;/span&gt;" style="points=[[0.25,0,0],[0.5,0,0],[0.75,0,0],[1,0.25,0],[1,0.5,0],[1,0.75,0],[0.75,1,0],[0.5,1,0],[0.25,1,0],[0,0.75,0],[0,0.5,0],[0,0.25,0]];shape=mxgraph.bpmn.task;whiteSpace=wrap;rectStyle=rounded;size=10;taskMarker=abstract;fontSize=15;html=1;" parent="IbKYtC_3RCh5xxz1OneK-6" vertex="1">
          <mxGeometry x="1320" y="130" width="120" height="80" as="geometry" />
        </mxCell>
        <mxCell id="7a99WiWWtlT3RzwQKHeO-10" value="&lt;span&gt;Parcela sem interesse de prospeção&lt;/span&gt;" style="points=[[0.25,0,0],[0.5,0,0],[0.75,0,0],[1,0.25,0],[1,0.5,0],[1,0.75,0],[0.75,1,0],[0.5,1,0],[0.25,1,0],[0,0.75,0],[0,0.5,0],[0,0.25,0]];shape=mxgraph.bpmn.task;whiteSpace=wrap;rectStyle=rounded;size=10;taskMarker=abstract;fontSize=15;html=1;" parent="IbKYtC_3RCh5xxz1OneK-6" vertex="1">
          <mxGeometry x="1440" y="350" width="120" height="80" as="geometry" />
        </mxCell>
        <mxCell id="IbKYtC_3RCh5xxz1OneK-120" value="&lt;span style=&quot;font-size: 14px ; background-color: rgb(248 , 249 , 250)&quot;&gt;DRAP&lt;/span&gt;" style="swimlane;html=1;startSize=20;horizontal=0;" parent="IbKYtC_3RCh5xxz1OneK-5" vertex="1">
          <mxGeometry y="470" width="1680" height="190" as="geometry" />
        </mxCell>
        <mxCell id="IbKYtC_3RCh5xxz1OneK-147" value="Notificar PORVID" style="points=[[0.25,0,0],[0.5,0,0],[0.75,0,0],[1,0.25,0],[1,0.5,0],[1,0.75,0],[0.75,1,0],[0.5,1,0],[0.25,1,0],[0,0.75,0],[0,0.5,0],[0,0.25,0]];shape=mxgraph.bpmn.task;whiteSpace=wrap;rectStyle=rounded;size=10;taskMarker=send;rounded=0;shadow=0;glass=0;sketch=0;fontSize=15;align=center;verticalAlign=middle;html=1;" parent="IbKYtC_3RCh5xxz1OneK-120" vertex="1">
          <mxGeometry x="540" y="30" width="130" height="80" as="geometry" />
        </mxCell>
        <mxCell id="IbKYtC_3RCh5xxz1OneK-148" style="edgeStyle=orthogonalEdgeStyle;rounded=0;orthogonalLoop=1;jettySize=auto;html=1;fontSize=15;startArrow=none;startFill=0;endArrow=classic;endFill=1;strokeWidth=2;" parent="IbKYtC_3RCh5xxz1OneK-120" source="IbKYtC_3RCh5xxz1OneK-149" target="IbKYtC_3RCh5xxz1OneK-147" edge="1">
          <mxGeometry relative="1" as="geometry">
            <mxPoint x="124.99999999999955" y="-3380" as="sourcePoint" />
          </mxGeometry>
        </mxCell>
        <mxCell id="IbKYtC_3RCh5xxz1OneK-149" value="Validação da percela" style="points=[[0.25,0,0],[0.5,0,0],[0.75,0,0],[1,0.25,0],[1,0.5,0],[1,0.75,0],[0.75,1,0],[0.5,1,0],[0.25,1,0],[0,0.75,0],[0,0.5,0],[0,0.25,0]];shape=mxgraph.bpmn.task;whiteSpace=wrap;rectStyle=rounded;size=10;taskMarker=abstract;isLoopStandard=1;fillColor=none;fontSize=15;" parent="IbKYtC_3RCh5xxz1OneK-120" vertex="1">
          <mxGeometry x="350" y="30" width="150" height="80" as="geometry" />
        </mxCell>
        <mxCell id="IbKYtC_3RCh5xxz1OneK-150" style="edgeStyle=orthogonalEdgeStyle;rounded=0;jumpStyle=arc;orthogonalLoop=1;jettySize=auto;html=1;labelBackgroundColor=default;fontSize=15;startArrow=none;startFill=0;endArrow=classic;endFill=1;strokeWidth=2;" parent="IbKYtC_3RCh5xxz1OneK-120" source="IbKYtC_3RCh5xxz1OneK-151" target="IbKYtC_3RCh5xxz1OneK-149" edge="1">
          <mxGeometry relative="1" as="geometry" />
        </mxCell>
        <mxCell id="IbKYtC_3RCh5xxz1OneK-151" value="&lt;font face=&quot;arial, sans-serif&quot;&gt;Listagem de parcelas&lt;br&gt;&lt;/font&gt;" style="points=[[0.145,0.145,0],[0.5,0,0],[0.855,0.145,0],[1,0.5,0],[0.855,0.855,0],[0.5,1,0],[0.145,0.855,0],[0,0.5,0]];shape=mxgraph.bpmn.event;html=1;verticalLabelPosition=bottom;labelBackgroundColor=#ffffff;verticalAlign=top;align=center;perimeter=ellipsePerimeter;outlineConnect=0;aspect=fixed;outline=standard;symbol=message;rounded=0;shadow=0;glass=0;sketch=0;fontSize=15;whiteSpace=wrap;" parent="IbKYtC_3RCh5xxz1OneK-120" vertex="1">
          <mxGeometry x="270" y="50" width="40" height="40" as="geometry" />
        </mxCell>
        <mxCell id="IbKYtC_3RCh5xxz1OneK-157" style="edgeStyle=orthogonalEdgeStyle;rounded=0;jumpStyle=arc;orthogonalLoop=1;jettySize=auto;html=1;dashed=1;labelBackgroundColor=default;fontSize=15;startArrow=oval;startFill=0;endArrow=classic;endFill=1;strokeWidth=2;" parent="IbKYtC_3RCh5xxz1OneK-5" source="IbKYtC_3RCh5xxz1OneK-147" target="IbKYtC_3RCh5xxz1OneK-155" edge="1">
          <mxGeometry relative="1" as="geometry">
            <Array as="points">
              <mxPoint x="605" y="450" />
              <mxPoint x="374" y="450" />
            </Array>
          </mxGeometry>
        </mxCell>
        <mxCell id="IbKYtC_3RCh5xxz1OneK-80" value="DRAP" style="swimlane;html=1;startSize=20;fontStyle=0;collapsible=0;horizontal=0;swimlaneLine=1;swimlaneFillColor=none;strokeWidth=2;rounded=0;shadow=0;glass=0;fontSize=14;fillColor=none;" parent="1" vertex="1">
          <mxGeometry x="40" y="1450" width="2820" height="240" as="geometry" />
        </mxCell>
        <mxCell id="j8fhtU1hvzyhwvqFzkYq-112" value="Necessário identificar e contactar viticultores" style="points=[[0.25,0.25,0],[0.5,0,0],[0.75,0.25,0],[1,0.5,0],[0.75,0.75,0],[0.5,1,0],[0.25,0.75,0],[0,0.5,0]];shape=mxgraph.bpmn.gateway2;html=1;verticalLabelPosition=bottom;labelBackgroundColor=#ffffff;verticalAlign=top;align=center;perimeter=rhombusPerimeter;outlineConnect=0;outline=standard;symbol=conditional;rounded=0;shadow=0;glass=0;sketch=0;fontSize=15;whiteSpace=wrap;labelPosition=center;" parent="IbKYtC_3RCh5xxz1OneK-80" vertex="1">
          <mxGeometry x="1730" y="55" width="50" height="50" as="geometry" />
        </mxCell>
        <mxCell id="j8fhtU1hvzyhwvqFzkYq-119" value="Notificar viticultores" style="points=[[0.25,0,0],[0.5,0,0],[0.75,0,0],[1,0.25,0],[1,0.5,0],[1,0.75,0],[0.75,1,0],[0.5,1,0],[0.25,1,0],[0,0.75,0],[0,0.5,0],[0,0.25,0]];shape=mxgraph.bpmn.task;whiteSpace=wrap;rectStyle=rounded;size=10;taskMarker=send;rounded=0;shadow=0;glass=0;sketch=0;fontSize=15;align=center;verticalAlign=middle;html=1;" parent="IbKYtC_3RCh5xxz1OneK-80" vertex="1">
          <mxGeometry x="1930" y="40" width="120" height="80" as="geometry" />
        </mxCell>
        <mxCell id="j8fhtU1hvzyhwvqFzkYq-118" style="edgeStyle=orthogonalEdgeStyle;rounded=0;jumpStyle=none;orthogonalLoop=1;jettySize=auto;html=1;fontSize=15;startArrow=none;startFill=0;endArrow=classic;endFill=1;strokeWidth=2;" parent="IbKYtC_3RCh5xxz1OneK-80" source="j8fhtU1hvzyhwvqFzkYq-112" target="j8fhtU1hvzyhwvqFzkYq-119" edge="1">
          <mxGeometry relative="1" as="geometry">
            <mxPoint x="1870" y="80" as="targetPoint" />
          </mxGeometry>
        </mxCell>
        <mxCell id="IbKYtC_3RCh5xxz1OneK-192" style="edgeStyle=orthogonalEdgeStyle;rounded=0;jumpStyle=arc;orthogonalLoop=1;jettySize=auto;html=1;labelBackgroundColor=default;fontSize=15;startArrow=none;startFill=0;endArrow=classic;endFill=1;strokeWidth=2;" parent="IbKYtC_3RCh5xxz1OneK-80" source="j8fhtU1hvzyhwvqFzkYq-121" target="IbKYtC_3RCh5xxz1OneK-188" edge="1">
          <mxGeometry relative="1" as="geometry">
            <Array as="points">
              <mxPoint x="2230" y="90" />
              <mxPoint x="2230" y="90" />
            </Array>
          </mxGeometry>
        </mxCell>
        <mxCell id="j8fhtU1hvzyhwvqFzkYq-121" value="Agendamento" style="points=[[0.145,0.145,0],[0.5,0,0],[0.855,0.145,0],[1,0.5,0],[0.855,0.855,0],[0.5,1,0],[0.145,0.855,0],[0,0.5,0]];shape=mxgraph.bpmn.event;html=1;verticalLabelPosition=bottom;labelBackgroundColor=#ffffff;verticalAlign=top;align=center;perimeter=ellipsePerimeter;outlineConnect=0;aspect=fixed;outline=catching;symbol=message;rounded=0;shadow=0;glass=0;sketch=0;fontSize=15;" parent="IbKYtC_3RCh5xxz1OneK-80" vertex="1">
          <mxGeometry x="2090" y="55" width="50" height="50" as="geometry" />
        </mxCell>
        <mxCell id="j8fhtU1hvzyhwvqFzkYq-122" style="edgeStyle=orthogonalEdgeStyle;rounded=0;jumpStyle=arc;jumpSize=10;orthogonalLoop=1;jettySize=auto;html=1;fontSize=15;startArrow=none;startFill=0;endArrow=classic;endFill=1;strokeWidth=2;" parent="IbKYtC_3RCh5xxz1OneK-80" source="j8fhtU1hvzyhwvqFzkYq-119" target="j8fhtU1hvzyhwvqFzkYq-121" edge="1">
          <mxGeometry relative="1" as="geometry" />
        </mxCell>
        <mxCell id="IbKYtC_3RCh5xxz1OneK-188" value="Atualização BD DRAP" style="points=[[0.25,0,0],[0.5,0,0],[0.75,0,0],[1,0.25,0],[1,0.5,0],[1,0.75,0],[0.75,1,0],[0.5,1,0],[0.25,1,0],[0,0.75,0],[0,0.5,0],[0,0.25,0]];shape=mxgraph.bpmn.task;whiteSpace=wrap;rectStyle=rounded;size=10;taskMarker=abstract;rounded=0;shadow=0;glass=0;sketch=0;fontSize=15;align=center;verticalAlign=middle;html=1;" parent="IbKYtC_3RCh5xxz1OneK-80" vertex="1">
          <mxGeometry x="2530" y="40" width="150" height="80" as="geometry" />
        </mxCell>
        <mxCell id="IbKYtC_3RCh5xxz1OneK-84" style="edgeStyle=orthogonalEdgeStyle;rounded=0;jumpStyle=arc;orthogonalLoop=1;jettySize=auto;html=1;dashed=1;labelBackgroundColor=default;fontSize=15;endArrow=classic;endFill=1;strokeWidth=2;startArrow=oval;startFill=0;" parent="1" source="j8fhtU1hvzyhwvqFzkYq-71" target="j8fhtU1hvzyhwvqFzkYq-112" edge="1">
          <mxGeometry relative="1" as="geometry" />
        </mxCell>
        <mxCell id="IbKYtC_3RCh5xxz1OneK-87" style="edgeStyle=orthogonalEdgeStyle;rounded=0;jumpStyle=arc;orthogonalLoop=1;jettySize=auto;html=1;dashed=1;labelBackgroundColor=default;fontSize=15;startArrow=oval;startFill=0;endArrow=classic;endFill=1;strokeWidth=2;" parent="1" source="j8fhtU1hvzyhwvqFzkYq-121" target="j8fhtU1hvzyhwvqFzkYq-77" edge="1">
          <mxGeometry relative="1" as="geometry">
            <Array as="points">
              <mxPoint x="2270" y="1520" />
            </Array>
          </mxGeometry>
        </mxCell>
        <mxCell id="IbKYtC_3RCh5xxz1OneK-66" value="" style="points=[[0.145,0.145,0],[0.5,0,0],[0.855,0.145,0],[1,0.5,0],[0.855,0.855,0],[0.5,1,0],[0.145,0.855,0],[0,0.5,0]];shape=mxgraph.bpmn.event;html=1;verticalLabelPosition=bottom;labelBackgroundColor=#ffffff;verticalAlign=top;align=center;perimeter=ellipsePerimeter;outlineConnect=0;aspect=fixed;outline=end;symbol=terminate;fontSize=15;" parent="1" vertex="1">
          <mxGeometry x="2760" y="1249" width="50" height="50" as="geometry" />
        </mxCell>
        <mxCell id="IbKYtC_3RCh5xxz1OneK-187" style="edgeStyle=orthogonalEdgeStyle;rounded=0;jumpStyle=arc;orthogonalLoop=1;jettySize=auto;html=1;labelBackgroundColor=default;fontSize=15;startArrow=none;startFill=0;endArrow=classic;endFill=1;strokeWidth=2;" parent="1" source="IbKYtC_3RCh5xxz1OneK-185" target="IbKYtC_3RCh5xxz1OneK-66" edge="1">
          <mxGeometry relative="1" as="geometry" />
        </mxCell>
        <mxCell id="IbKYtC_3RCh5xxz1OneK-189" value="BD PORVID" style="shape=datastore;labelPosition=center;verticalLabelPosition=bottom;align=center;verticalAlign=top;rounded=0;shadow=0;glass=0;sketch=0;fontSize=15;html=1;" parent="1" vertex="1">
          <mxGeometry x="2625" y="1605.5" width="40" height="50" as="geometry" />
        </mxCell>
        <mxCell id="IbKYtC_3RCh5xxz1OneK-190" style="edgeStyle=orthogonalEdgeStyle;rounded=0;jumpStyle=arc;orthogonalLoop=1;jettySize=auto;html=1;labelBackgroundColor=default;fontSize=15;startArrow=none;startFill=0;endArrow=open;endFill=0;strokeWidth=2;dashed=1;" parent="1" source="IbKYtC_3RCh5xxz1OneK-188" target="IbKYtC_3RCh5xxz1OneK-189" edge="1">
          <mxGeometry relative="1" as="geometry" />
        </mxCell>
        <mxCell id="IbKYtC_3RCh5xxz1OneK-191" style="edgeStyle=orthogonalEdgeStyle;rounded=0;jumpStyle=arc;orthogonalLoop=1;jettySize=auto;html=1;dashed=1;labelBackgroundColor=default;fontSize=15;startArrow=oval;startFill=0;endArrow=open;endFill=0;strokeWidth=2;" parent="1" source="IbKYtC_3RCh5xxz1OneK-185" target="IbKYtC_3RCh5xxz1OneK-188" edge="1">
          <mxGeometry relative="1" as="geometry" />
        </mxCell>
        <mxCell id="IbKYtC_3RCh5xxz1OneK-85" style="edgeStyle=orthogonalEdgeStyle;rounded=0;jumpStyle=arc;orthogonalLoop=1;jettySize=auto;html=1;dashed=1;labelBackgroundColor=default;fontSize=15;startArrow=oval;startFill=0;endArrow=open;endFill=0;strokeWidth=2;" parent="1" source="j8fhtU1hvzyhwvqFzkYq-119" edge="1">
          <mxGeometry relative="1" as="geometry">
            <mxPoint x="2040" y="550" as="targetPoint" />
            <mxPoint x="2600" y="1530" as="sourcePoint" />
            <Array as="points">
              <mxPoint x="2040" y="550" />
            </Array>
          </mxGeometry>
        </mxCell>
        <mxCell id="A43F4s2ZnalGoexAEKTJ-57" value="" style="rounded=0;whiteSpace=wrap;html=1;fontFamily=Roboto;fontSource=https%3A%2F%2Ffonts.googleapis.com%2Fcss%3Ffamily%3DRoboto;fontSize=23;fillColor=#bac8d3;align=left;strokeColor=none;opacity=50;" parent="1" vertex="1">
          <mxGeometry x="1810" y="110" width="880" height="280" as="geometry" />
        </mxCell>
        <mxCell id="NLFkMVxidJrpuLbfi5vq-1" value="&lt;b&gt;Desafio 1 - &lt;font color=&quot;#546d78&quot;&gt;Processo Atual&lt;/font&gt;&lt;/b&gt;&lt;br&gt;Comunicação entre diversas entidades para aviso de reestruturação da vinha" style="text;html=1;strokeColor=none;fillColor=none;align=left;verticalAlign=middle;whiteSpace=wrap;rounded=0;fontSize=30;" vertex="1" parent="1">
          <mxGeometry x="40" y="120" width="1060" height="100" as="geometry" />
        </mxCell>
        <mxCell id="NLFkMVxidJrpuLbfi5vq-2" value="&lt;h1 style=&quot;font-family: roboto;&quot;&gt;&lt;font style=&quot;font-size: 40px&quot;&gt;SOS VITIS&lt;/font&gt;&lt;/h1&gt;" style="text;html=1;strokeColor=none;fillColor=none;align=left;verticalAlign=middle;whiteSpace=wrap;rounded=0;fontSize=40;" vertex="1" parent="1">
          <mxGeometry x="40" y="30" width="200" height="90" as="geometry" />
        </mxCell>
        <mxCell id="NLFkMVxidJrpuLbfi5vq-3" value="" style="group" vertex="1" connectable="0" parent="1">
          <mxGeometry x="40" y="250" width="840" height="89" as="geometry" />
        </mxCell>
        <mxCell id="A43F4s2ZnalGoexAEKTJ-46" value="1a" style="ellipse;whiteSpace=wrap;html=1;strokeWidth=2;fillWeight=2;hachureGap=8;fillColor=#546d78;fillStyle=dashed;sketch=1;fontSize=20;fontColor=#000000;fontStyle=1;labelBackgroundColor=none;labelBorderColor=none;jiggle=1;" parent="NLFkMVxidJrpuLbfi5vq-3" vertex="1">
          <mxGeometry width="40" height="40" as="geometry" />
        </mxCell>
        <mxCell id="A43F4s2ZnalGoexAEKTJ-47" value="1b" style="ellipse;whiteSpace=wrap;html=1;strokeWidth=2;fillWeight=2;hachureGap=8;fillColor=#546d78;fillStyle=dashed;sketch=1;fontSize=20;fontColor=#000000;fontStyle=1;labelBackgroundColor=none;labelBorderColor=none;jiggle=1;" parent="NLFkMVxidJrpuLbfi5vq-3" vertex="1">
          <mxGeometry y="49" width="40" height="40" as="geometry" />
        </mxCell>
        <mxCell id="A43F4s2ZnalGoexAEKTJ-52" value="Identificar parcela alvo de intervenção VITIS" style="text;html=1;strokeColor=none;fillColor=none;align=left;verticalAlign=middle;whiteSpace=wrap;rounded=0;fontFamily=Roboto;fontSize=23;fontStyle=1;fontSource=https%3A%2F%2Ffonts.googleapis.com%2Fcss%3Ffamily%3DRoboto;" parent="NLFkMVxidJrpuLbfi5vq-3" vertex="1">
          <mxGeometry x="60" y="5" width="780" height="30" as="geometry" />
        </mxCell>
        <mxCell id="A43F4s2ZnalGoexAEKTJ-53" value="Receber informação descritiva sobre a parcela alvo de intervenção VITIS" style="text;html=1;strokeColor=none;fillColor=none;align=left;verticalAlign=middle;whiteSpace=wrap;rounded=0;fontFamily=Roboto;fontSize=23;fontStyle=1;fontSource=https%3A%2F%2Ffonts.googleapis.com%2Fcss%3Ffamily%3DRoboto;" parent="NLFkMVxidJrpuLbfi5vq-3" vertex="1">
          <mxGeometry x="60" y="54" width="780" height="30" as="geometry" />
        </mxCell>
      </root>
    </mxGraphModel>
  </diagram>
</mxfile>
